<?xml version="1.0" encoding="UTF-8" standalone="no"?>
<!-- Created with Inkscape (http://www.inkscape.org/) -->

<svg
   width="111.10829mm"
   height="13.91543mm"
   viewBox="0 0 111.10829 13.91543"
   version="1.1"
   id="svg1831"
   inkscape:version="1.2.1 (9c6d41e410, 2022-07-14)"
   sodipodi:docname="alone.svg"
   xmlns:inkscape="http://www.inkscape.org/namespaces/inkscape"
   xmlns:sodipodi="http://sodipodi.sourceforge.net/DTD/sodipodi-0.dtd"
   xmlns="http://www.w3.org/2000/svg"
   xmlns:svg="http://www.w3.org/2000/svg">
  <sodipodi:namedview
     id="namedview1833"
     pagecolor="#ffffff"
     bordercolor="#666666"
     borderopacity="1.0"
     inkscape:showpageshadow="2"
     inkscape:pageopacity="0.0"
     inkscape:pagecheckerboard="0"
     inkscape:deskcolor="#d1d1d1"
     inkscape:document-units="mm"
     showgrid="false"
     inkscape:zoom="0.75544332"
     inkscape:cx="161.49458"
     inkscape:cy="174.06997"
     inkscape:window-width="1920"
     inkscape:window-height="1027"
     inkscape:window-x="1916"
     inkscape:window-y="-4"
     inkscape:window-maximized="1"
     inkscape:current-layer="title" />
  <defs
     id="defs1828" />
  <g
     inkscape:label="Calque 1"
     inkscape:groupmode="layer"
     id="layer1"
     transform="translate(-62.475336,-102.66611)">
    <g
       id="title"
       style="font-style:normal;font-weight:700;font-size:72px;line-height:1;font-family:'Roboto Condensed';font-variant-ligatures:none;text-align:center;text-anchor:middle"
       transform="matrix(0.26458333,0,0,0.26458333,-17.437184,15.404639)">
      <path
         id="F"
         style="font-style:normal;font-weight:700;font-size:72px;line-height:1;font-family:'Roboto Condensed';font-variant-ligatures:none;text-align:center;text-anchor:middle"
         d="m 333.82812,-20.882812 h -16.0664 V 0 h -10.33594 v -51.1875 h 28.33594 v 8.613281 h -18 v 13.113282 h 16.0664 z"
         stroke-width="0"
         stroke-linejoin="miter"
         stroke-miterlimit="2"
         fill="#082252"
         stroke="#082252"
         transform="translate(-5.3942027,381.69775)" />
      <path
         id="O"
         style="font-style:normal;font-weight:700;font-size:72px;line-height:1;font-family:'Roboto Condensed';font-variant-ligatures:none;text-align:center;text-anchor:middle"
         d="m 377.77344,-20.988281 q 0,10.300781 -4.88672,15.9960935 -4.85156,5.6953125 -13.5,5.6953125 -8.61328,0 -13.53516,-5.625 -4.92187,-5.660156 -4.99219,-15.820312 v -8.753907 q 0,-10.546875 4.88672,-16.453125 4.88672,-5.941406 13.57032,-5.941406 8.54296,0 13.46484,5.835938 4.92187,5.800781 4.99219,16.3125 z m -10.3711,-8.578125 q 0,-6.925781 -1.96875,-10.300781 -1.96875,-3.375 -6.11718,-3.375 -4.11329,0 -6.08204,3.269531 -1.96875,3.234375 -2.03906,9.878906 v 9.105469 q 0,6.714843 2.00391,9.914062 2.0039,3.1640628 6.1875,3.1640628 4.04297,0 6.01172,-3.0937498 1.96875,-3.128907 2.0039,-9.667969 z"
         stroke-width="0"
         stroke-linejoin="miter"
         stroke-miterlimit="2"
         fill="#082252"
         stroke="#082252"
         transform="translate(-5.3942027,381.69775)" />
      <path
         id="O2"
         style="font-style:normal;font-weight:700;font-size:72px;line-height:1;font-family:'Roboto Condensed';font-variant-ligatures:none;text-align:center;text-anchor:middle"
         d="m 421.22656,-20.988281 q 0,10.300781 -4.88672,15.9960935 -4.85156,5.6953125 -13.5,5.6953125 -8.61328,0 -13.53515,-5.625 -4.92188,-5.660156 -4.99219,-15.820312 v -8.753907 q 0,-10.546875 4.88672,-16.453125 4.88672,-5.941406 13.57031,-5.941406 8.54297,0 13.46484,5.835938 4.92188,5.800781 4.99219,16.3125 z m -10.37109,-8.578125 q 0,-6.925781 -1.96875,-10.300781 -1.96875,-3.375 -6.11719,-3.375 -4.11328,0 -6.08203,3.269531 -1.96875,3.234375 -2.03906,9.878906 v 9.105469 q 0,6.714843 2.0039,9.914062 2.00391,3.1640628 6.1875,3.1640628 4.04297,0 6.01172,-3.0937498 1.96875,-3.128907 2.00391,-9.667969 z"
         stroke-width="0"
         stroke-linejoin="miter"
         stroke-miterlimit="2"
         fill="#082252"
         stroke="#082252"
         transform="translate(-5.3942027,381.69775)" />
      <path
         id="D"
         style="font-style:normal;font-weight:700;font-size:72px;line-height:1;font-family:'Roboto Condensed';font-variant-ligatures:none;text-align:center;text-anchor:middle"
         d="m 428.64453,0 v -51.1875 h 13.53516 q 8.96484,0 14.27343,5.695313 5.34375,5.695312 5.44922,15.609375 v 8.296875 q 0,10.089843 -5.34375,15.8554683 Q 451.25,0 441.89844,0 Z m 10.33594,-42.574219 v 33.996094 h 3.09375 q 5.16797,0 7.27734,-2.707031 2.10938,-2.742188 2.21485,-9.421875 v -8.894531 q 0,-7.171875 -2.00391,-9.984375 -2.00391,-2.847657 -6.82031,-2.988282 z"
         stroke-width="0"
         stroke-linejoin="miter"
         stroke-miterlimit="2"
         fill="#082252"
         stroke="#082252"
         transform="translate(-5.3942027,381.69775)" />
      <path
         id="W"
         style="font-style:normal;font-weight:700;font-size:72px;line-height:1;font-family:'Roboto Condensed';font-variant-ligatures:none;text-align:center;text-anchor:middle"
         d="M 502.54297,-19.019531 507.39453,-51.1875 H 517.625 L 508.51953,0 H 498.14844 L 492.17187,-30.164062 486.26562,0 h -10.40625 l -9.14062,-51.1875 h 10.30078 l 4.81641,32.132813 6.01172,-32.132813 h 8.68359 z"
         stroke-width="0"
         stroke-linejoin="miter"
         stroke-miterlimit="2"
         fill="#082252"
         stroke="#082252"
         transform="translate(-5.3942027,381.69775)" />
      <path
         id="N"
         style="font-style:normal;font-weight:700;font-size:72px;line-height:1;font-family:'Roboto Condensed';font-variant-ligatures:none;text-align:center;text-anchor:middle"
         d="M 600.55859,0 H 590.22266 L 575.10547,-33.574219 V 0 h -10.33594 v -51.1875 h 10.33594 l 15.15234,33.609375 V -51.1875 h 10.30078 z"
         stroke-width="0"
         stroke-linejoin="miter"
         stroke-miterlimit="2"
         fill="#082252"
         stroke="#082252"
         transform="translate(2.7926427,381.69775)" />
      <path
         id="D2"
         style="font-style:normal;font-weight:700;font-size:72px;line-height:1;font-family:'Roboto Condensed';font-variant-ligatures:none;text-align:center;text-anchor:middle"
         d="m 608.92578,0 v -51.1875 h 13.53516 q 8.96484,0 14.27343,5.695313 5.34375,5.695312 5.44922,15.609375 v 8.296875 q 0,10.089843 -5.34375,15.8554683 Q 631.53125,0 622.17969,0 Z m 10.33594,-42.574219 v 33.996094 h 3.09375 q 5.16797,0 7.27734,-2.707031 2.10938,-2.742188 2.21485,-9.421875 v -8.894531 q 0,-7.171875 -2.00391,-9.984375 -2.00391,-2.847657 -6.82031,-2.988282 z"
         stroke-width="0"
         stroke-linejoin="miter"
         stroke-miterlimit="2"
         fill="#082252"
         stroke="#082252"
         transform="translate(2.7926427,381.69775)" />
      <path
         id="E"
         style="font-style:normal;font-weight:700;font-size:72px;line-height:1;font-family:'Roboto Condensed';font-variant-ligatures:none;text-align:center;text-anchor:middle"
         d="m 676.00391,-22.148437 h -16.10157 v 13.570312 h 19.05469 V 0 h -29.39062 v -51.1875 h 29.32031 v 8.613281 h -18.98438 v 12.09375 h 16.10157 z"
         stroke-width="0"
         stroke-linejoin="miter"
         stroke-miterlimit="2"
         fill="#082252"
         stroke="#082252"
         transform="translate(2.7926427,381.69775)" />
      <path
         id="R"
         style="font-style:normal;font-weight:700;font-size:72px;line-height:1;font-family:'Roboto Condensed';font-variant-ligatures:none;text-align:center;text-anchor:middle"
         d="m 700.36719,-18.703125 h -5.13282 V 0 h -10.33593 v -51.1875 h 16.48828 q 7.76953,0 11.98828,4.042969 4.25391,4.007812 4.25391,11.425781 0,10.195313 -7.41797,14.273438 l 8.96484,20.9531245 V 0 h -11.10937 z m -5.13282,-8.613281 h 5.8711 q 3.09375,0 4.64062,-2.039063 1.54688,-2.074218 1.54688,-5.519531 0,-7.699219 -6.01172,-7.699219 h -6.04688 z"
         stroke-width="0"
         stroke-linejoin="miter"
         stroke-miterlimit="2"
         fill="#082252"
         stroke="#082252"
         transform="translate(2.7926427,381.69775)" />
    </g>
    <path
       style="fill:#082252;fill-opacity:1;stroke-width:0.0765162"
       d="m 118.59253,116.44247 c -0.0283,-0.0283 -0.0515,-1.40177 -0.0515,-3.05216 0,-2.98642 -8e-4,-3.00092 -0.1611,-3.04284 -0.32801,-0.0858 -0.10254,-0.24315 0.38171,-0.26642 l 0.47628,-0.0229 -0.0487,-0.3245 c -0.0988,-0.65896 0.20249,-1.69347 0.67681,-2.32376 0.26586,-0.35328 0.27154,-0.35673 0.42595,-0.25894 0.0847,0.0537 0.0587,0.12613 -0.1302,0.36228 -0.50251,0.6283 -0.82403,1.75214 -0.6732,2.35311 l 0.05,0.19933 h 2.55799 2.55798 l 0.0911,-0.46308 c 0.0501,-0.2547 0.22131,-0.71769 0.38045,-1.02887 l 0.28935,-0.56578 -0.29091,-0.40581 c -0.53019,-0.73962 -1.36869,-1.19001 -2.35585,-1.26544 -0.6316,-0.0483 -0.87526,-0.20145 -0.44793,-0.28162 0.40571,-0.0761 1.25674,0.0871 1.78024,0.34141 0.51397,0.24967 1.15169,0.77943 1.32251,1.09862 0.14924,0.27886 0.23039,0.12217 0.23398,-0.45182 0.002,-0.2525 0.0505,-0.90671 0.10863,-1.4538 0.0669,-0.629 0.0792,-1.0271 0.0335,-1.08279 -0.0398,-0.0484 -0.0623,-0.39277 -0.0501,-0.76516 l 0.0222,-0.67709 h 1.79813 1.79813 l 0.0222,0.67709 c 0.0122,0.37239 -0.009,0.71671 -0.0477,0.76516 -0.0426,0.0537 -0.0323,0.35787 0.0266,0.77954 0.0531,0.38031 0.12193,1.09841 0.15301,1.59579 0.0541,0.86545 0.0692,0.92609 0.35243,1.41073 0.30222,0.51719 0.4767,0.97813 0.56105,1.48225 l 0.0474,0.2832 0.43116,0.0229 c 0.44325,0.0235 0.64792,0.18496 0.3374,0.26616 -0.15879,0.0415 -0.1604,0.069 -0.18022,3.07472 l -0.02,3.03283 -6.20374,0.0196 c -3.41206,0.0108 -6.22689,-0.004 -6.2552,-0.0319 z m 1.47887,-0.86762 v -0.61213 h -0.61213 -0.61213 v 0.61213 0.61212 h 0.61213 0.61213 z m 1.53032,0 v -0.61213 h -0.61213 -0.61213 v 0.61213 0.61212 h 0.61213 0.61213 z m 1.53032,0 v -0.61213 h -0.61212 -0.61213 v 0.61213 0.61212 h 0.61213 0.61212 z m 1.53033,0 v -0.61213 h -0.61213 -0.61213 v 0.61213 0.61212 h 0.61213 0.61213 z m 1.53032,0 v -0.61213 h -0.61213 -0.61213 v 0.61213 0.61212 h 0.61213 0.61213 z m 1.53033,0 v -0.61213 h -0.61213 -0.61213 v 0.61213 0.61212 h 0.61213 0.61213 z m 1.53032,0 v -0.61213 h -0.61213 -0.61213 v 0.61213 0.61212 h 0.61213 0.61213 z m 1.53032,0 v -0.61213 h -0.61213 -0.61213 v 0.61213 0.61212 h 0.61213 0.61213 z m -10.71226,-1.53033 v -0.61213 h -0.61213 -0.61213 v 0.61213 0.61213 h 0.61213 0.61213 z m 1.53032,0 v -0.61213 h -0.61213 -0.61213 v 0.61213 0.61213 h 0.61213 0.61213 z m 1.53032,0 v -0.61213 h -0.61212 -0.61213 v 0.61213 0.61213 h 0.61213 0.61212 z m 1.53033,0 v -0.61213 h -0.61213 -0.61213 v 0.61213 0.61213 h 0.61213 0.61213 z m 1.53032,0 v -0.61213 h -0.61213 -0.61213 v 0.61213 0.61213 h 0.61213 0.61213 z m 1.53033,0 v -0.61213 h -0.61213 -0.61213 v 0.61213 0.61213 h 0.61213 0.61213 z m 1.53032,0 v -0.61213 h -0.61213 -0.61213 v 0.61213 0.61213 h 0.61213 0.61213 z m 1.53032,0 v -0.61213 h -0.61213 -0.61213 v 0.61213 0.61213 h 0.61213 0.61213 z M 120.0714,112.5142 v -0.61213 h -0.61213 -0.61213 v 0.61213 0.61213 h 0.61213 0.61213 z m 1.53032,0 v -0.61213 h -0.61213 -0.61213 v 0.61213 0.61213 h 0.61213 0.61213 z m 1.53032,0 v -0.61213 h -0.61212 -0.61213 v 0.61213 0.61213 h 0.61213 0.61212 z m 1.53033,0 v -0.61213 h -0.61213 -0.61213 v 0.61213 0.61213 h 0.61213 0.61213 z m 1.53032,0 v -0.61213 h -0.61213 -0.61213 v 0.61213 0.61213 h 0.61213 0.61213 z m 1.53033,0 v -0.61213 h -0.61213 -0.61213 v 0.61213 0.61213 h 0.61213 0.61213 z m 1.53032,0 v -0.61213 h -0.61213 -0.61213 v 0.61213 0.61213 h 0.61213 0.61213 z m 1.53032,0 v -0.61213 h -0.61213 -0.61213 v 0.61213 0.61213 h 0.61213 0.61213 z m -10.71226,-1.53033 v -0.61212 h -0.61213 -0.61213 v 0.61212 0.61213 h 0.61213 0.61213 z m 1.53032,0 v -0.61212 h -0.61213 -0.61213 v 0.61212 0.61213 h 0.61213 0.61213 z m 1.53032,0 v -0.61212 h -0.61212 -0.61213 v 0.61212 0.61213 h 0.61213 0.61212 z m 1.53033,0 v -0.61212 h -0.61213 -0.61213 v 0.61212 0.61213 h 0.61213 0.61213 z m 1.53032,0 v -0.61212 h -0.61213 -0.61213 v 0.61212 0.61213 h 0.61213 0.61213 z m 1.53033,0 v -0.61212 h -0.61213 -0.61213 v 0.61212 0.61213 h 0.61213 0.61213 z m 1.53032,0 v -0.61212 h -0.61213 -0.61213 v 0.61212 0.61213 h 0.61213 0.61213 z m 1.53032,0 v -0.61212 h -0.61213 -0.61213 v 0.61212 0.61213 h 0.61213 0.61213 z m -0.66104,-1.24338 c -0.077,-0.49355 -0.23192,-0.88526 -0.57509,-1.45381 l -0.31175,-0.51648 h -1.66093 -1.66093 l -0.32914,0.57526 c -0.34578,0.60434 -0.4868,0.95776 -0.57192,1.43329 l -0.0514,0.28693 h 2.60592 2.60592 z m -0.90531,-3.09891 c -0.0306,-0.4524 -0.0953,-1.098 -0.14375,-1.43468 l -0.088,-0.61213 h -1.41555 -1.41555 l -0.0842,0.68865 c -0.0463,0.37876 -0.10726,1.02436 -0.13545,1.43468 l -0.0513,0.74603 h 1.69474 1.69475 z m -0.11701,-2.85022 v -0.4591 h -1.53032 -1.53032 v 0.4591 0.45909 h 1.53032 1.53032 z m -7.34555,3.69906 c -1.12314,-0.20346 -2.83935,-1.22382 -3.16089,-1.87927 -0.47246,-0.96313 1.19325,-0.80476 2.83324,0.26937 1.17402,0.76894 1.51271,1.50628 0.7412,1.61363 -0.12224,0.017 -0.30834,0.0153 -0.41355,-0.004 z m 0.51452,-0.38255 c 0.0492,-0.14983 -0.44871,-0.64753 -1.02416,-1.0237 -0.86737,-0.567 -1.98955,-0.95338 -2.35814,-0.81194 -0.10879,0.0418 -0.10976,0.0698 -0.009,0.26442 0.32701,0.63238 2.3118,1.71909 3.06224,1.67665 0.16506,-0.009 0.31319,-0.0568 0.32917,-0.10543 z"
       id="logo" />
  </g>
</svg>
