<?xml version="1.0" encoding="UTF-8" standalone="no"?>
<svg
   id="svg210677"
   viewBox="0 0 1024 768"
   height="768px"
   width="1024px"
   version="1.1"
   sodipodi:docname="generated.svg"
   inkscape:version="1.2.1 (9c6d41e410, 2022-07-14)"
   xmlns:inkscape="http://www.inkscape.org/namespaces/inkscape"
   xmlns:sodipodi="http://sodipodi.sourceforge.net/DTD/sodipodi-0.dtd"
   xmlns="http://www.w3.org/2000/svg"
   xmlns:svg="http://www.w3.org/2000/svg"
   xmlns:rdf="http://www.w3.org/1999/02/22-rdf-syntax-ns#"
   xmlns:cc="http://creativecommons.org/ns#"
   xmlns:dc="http://purl.org/dc/elements/1.1/">
  <sodipodi:namedview
     id="namedview2596"
     pagecolor="#ffffff"
     bordercolor="#666666"
     borderopacity="1.0"
     inkscape:showpageshadow="2"
     inkscape:pageopacity="0.0"
     inkscape:pagecheckerboard="0"
     inkscape:deskcolor="#d1d1d1"
     showgrid="false"
     inkscape:zoom="1.0496542"
     inkscape:cx="456.34076"
     inkscape:cy="381.55423"
     inkscape:window-width="1920"
     inkscape:window-height="1027"
     inkscape:window-x="1916"
     inkscape:window-y="-4"
     inkscape:window-maximized="1"
     inkscape:current-layer="logo-center" />
  <metadata
     id="metadata210683">
    <rdf:rdf>
      <cc:work
         rdf:about="">
        <dc:format>image/svg+xml</dc:format>
        <dc:type
           rdf:resource="http://purl.org/dc/dcmitype/StillImage" />
      </cc:work>
    </rdf:rdf>
  </metadata>
  <defs
     id="defs210681" />
  <linearGradient
     spreadMethod="pad"
     y2="30%"
     x2="-10%"
     y1="120%"
     x1="30%"
     id="3d_gradient2-logo-eea265e7-4790-440c-8dab-66273285daad">
    <stop
       id="stop210658"
       stop-opacity="1"
       stop-color="#ffffff"
       offset="0%" />
    <stop
       id="stop210660"
       stop-opacity="1"
       stop-color="#000000"
       offset="100%" />
  </linearGradient>
  <linearGradient
     gradientTransform="rotate(-30)"
     spreadMethod="pad"
     y2="30%"
     x2="-10%"
     y1="120%"
     x1="30%"
     id="3d_gradient3-logo-eea265e7-4790-440c-8dab-66273285daad">
    <stop
       id="stop210663"
       stop-opacity="1"
       stop-color="#ffffff"
       offset="0%" />
    <stop
       id="stop210665"
       stop-opacity="1"
       stop-color="#cccccc"
       offset="50%" />
    <stop
       id="stop210667"
       stop-opacity="1"
       stop-color="#000000"
       offset="100%" />
  </linearGradient>
  <g
     id="logo-group">
    <g
       id="logo-center"
       transform="translate(0 0)">
      <g
         id="slogan"
         style="font-style:oblique;font-weight:normal;font-size:32px;line-height:1;font-family:Lato;font-variant-ligatures:none;text-align:center;text-anchor:middle"
         transform="translate(0 0)">
        <path
           id="path210685"
           style="font-style:oblique;font-weight:normal;font-size:32px;line-height:1;font-family:Lato;font-variant-ligatures:none;text-align:center;text-anchor:middle"
           d="M 386.23,-22.928 383.398,0 h -2.608 l 2.08,-16.944 q 0.048,-0.32 0.112,-0.704 0.08,-0.384 0.176,-0.8 l -8.944,14.416 q -0.416,0.688 -1.152,0.688 h -0.432 q -0.352,0 -0.624,-0.176 -0.256,-0.176 -0.368,-0.512 l -5.536,-14.416 q -0.016,0.384 -0.032,0.768 -0.016,0.368 -0.048,0.688 L 363.958,0 h -2.64 l 2.816,-22.928 h 2.208 q 0.4,0 0.576,0.112 0.176,0.096 0.4,0.4 L 372.87,-8 q 0.112,0.32 0.192,0.64 0.08,0.32 0.16,0.656 0.16,-0.336 0.32,-0.656 0.16,-0.32 0.352,-0.64 l 9.024,-14.416 q 0.272,-0.32 0.48,-0.416 0.208,-0.096 0.608,-0.096 z"
           stroke-width="0"
           stroke-linejoin="miter"
           stroke-miterlimit="2"
           fill="#082252"
           stroke="#082252"
           transform="translate(-1.1368683772161603e-13 358.80087499999996) translate(331.78550000000007 50.64) scale(1) translate(-361.318 22.928)" />
        <path
           id="path210687"
           style="font-style:oblique;font-weight:normal;font-size:32px;line-height:1;font-family:Lato;font-variant-ligatures:none;text-align:center;text-anchor:middle"
           d="m 398.923,-14.224 q -0.352,-0.08 -0.704,-0.096 -0.336,-0.032 -0.672,-0.032 -0.96,0 -1.856,0.32 -0.896,0.304 -1.68,0.864 -0.784,0.56 -1.424,1.344 -0.64,0.768 -1.104,1.696 -0.448,0.928 -0.704,1.984 -0.256,1.04 -0.256,2.144 0,3.856 2.464,3.856 0.784,0 1.536,-0.48 0.752,-0.496 1.424,-1.36 0.688,-0.88 1.264,-2.064 0.576,-1.2 1.024,-2.624 z m -1.088,9.952 q -0.576,1.024 -1.248,1.856 -0.656,0.832 -1.408,1.424 -0.736,0.576 -1.568,0.896 -0.816,0.32 -1.696,0.32 -0.96,0 -1.744,-0.368 -0.784,-0.384 -1.344,-1.104 -0.544,-0.736 -0.848,-1.792 -0.304,-1.072 -0.304,-2.448 0,-1.44 0.352,-2.8 0.368,-1.376 1.024,-2.592 0.672,-1.216 1.6,-2.224 0.928,-1.024 2.064,-1.76 1.152,-0.752 2.464,-1.152 1.312,-0.416 2.752,-0.416 1.04,0 2.016,0.176 0.992,0.16 1.952,0.576 L 399.963,0 h -1.472 q -0.56,0 -0.768,-0.288 -0.192,-0.288 -0.192,-0.704 z"
           stroke-width="0"
           stroke-linejoin="miter"
           stroke-miterlimit="2"
           fill="#082252"
           stroke="#082252"
           transform="translate(-1.1368683772161603e-13 358.80087499999996) translate(361.1425000000001 57.135999999999996) scale(1) translate(-387.675 16.432)" />
        <path
           id="path210689"
           style="font-style:oblique;font-weight:normal;font-size:32px;line-height:1;font-family:Lato;font-variant-ligatures:none;text-align:center;text-anchor:middle"
           d="m 409.858,-23.568 -1.696,13.872 h 0.48 q 0.336,0 0.544,-0.08 0.208,-0.096 0.448,-0.368 l 5.376,-5.488 q 0.224,-0.272 0.48,-0.416 0.256,-0.16 0.624,-0.16 h 2.528 l -6.256,6.352 q -0.48,0.56 -0.976,0.848 0.256,0.192 0.432,0.448 0.192,0.24 0.352,0.56 l 4.864,8 h -2.448 q -0.352,0 -0.592,-0.112 -0.224,-0.128 -0.368,-0.448 l -4.128,-6.64 q -0.192,-0.336 -0.4,-0.432 -0.208,-0.112 -0.656,-0.112 h -0.544 L 406.978,0 h -2.816 l 2.896,-23.568 z"
           stroke-width="0"
           stroke-linejoin="miter"
           stroke-miterlimit="2"
           fill="#082252"
           stroke="#082252"
           transform="translate(-1.1368683772161603e-13 358.80087499999996) translate(380.62950000000006 50) scale(1) translate(-404.162 23.568)" />
        <path
           id="path210691"
           style="font-style:oblique;font-weight:normal;font-size:32px;line-height:1;font-family:Lato;font-variant-ligatures:none;text-align:center;text-anchor:middle"
           d="m 426.7465,-14.384 q -1.008,0 -1.856,0.416 -0.848,0.416 -1.504,1.152 -0.656,0.72 -1.12,1.712 -0.464,0.976 -0.72,2.112 2.464,-0.304 3.952,-0.688 1.488,-0.4 2.288,-0.848 0.8,-0.464 1.056,-0.992 0.256,-0.528 0.256,-1.104 0,-0.288 -0.128,-0.592 -0.128,-0.32 -0.416,-0.576 -0.272,-0.256 -0.72,-0.416 -0.448,-0.176 -1.088,-0.176 z m 4.512,11.392 q -0.816,0.848 -1.6,1.456 -0.784,0.592 -1.6,0.992 -0.8,0.4 -1.696,0.576 -0.88,0.192 -1.904,0.192 -1.392,0 -2.496,-0.464 -1.104,-0.464 -1.872,-1.312 -0.768,-0.864 -1.184,-2.08 -0.416,-1.216 -0.416,-2.72 0,-1.248 0.256,-2.48 0.272,-1.248 0.768,-2.368 0.512,-1.12 1.232,-2.08 0.736,-0.96 1.664,-1.648 0.944,-0.704 2.064,-1.104 1.136,-0.4 2.432,-0.4 1.232,0 2.128,0.352 0.896,0.352 1.472,0.896 0.576,0.544 0.848,1.2 0.288,0.656 0.288,1.248 0,1.056 -0.432,1.952 -0.432,0.88 -1.584,1.6 -1.152,0.704 -3.168,1.232 -2.016,0.528 -5.184,0.848 0,0.176 -0.016,0.352 0,0.16 0,0.336 0,2.144 0.928,3.28 0.944,1.12 2.832,1.12 0.768,0 1.36,-0.16 0.608,-0.16 1.072,-0.384 0.48,-0.24 0.832,-0.512 0.368,-0.288 0.656,-0.512 0.304,-0.24 0.56,-0.4 0.256,-0.16 0.512,-0.16 0.304,0 0.544,0.272 z"
           stroke-width="0"
           stroke-linejoin="miter"
           stroke-miterlimit="2"
           fill="#082252"
           stroke="#082252"
           transform="translate(-1.1368683772161603e-13 358.80087499999996) translate(397.9580000000001 57.135999999999996) scale(1) translate(-418.4905 16.432)" />
        <path
           id="path210693"
           style="font-style:oblique;font-weight:normal;font-size:32px;line-height:1;font-family:Lato;font-variant-ligatures:none;text-align:center;text-anchor:middle"
           d="m 444.267,-13.616 q -0.128,0.192 -0.256,0.288 -0.128,0.08 -0.32,0.08 -0.224,0 -0.496,-0.176 -0.256,-0.176 -0.64,-0.384 -0.368,-0.224 -0.912,-0.4 -0.544,-0.192 -1.312,-0.192 -0.72,0 -1.312,0.208 -0.592,0.192 -1.024,0.544 -0.416,0.352 -0.656,0.832 -0.224,0.464 -0.224,0.992 0,0.752 0.496,1.2 0.496,0.448 1.248,0.784 0.752,0.32 1.616,0.624 0.864,0.304 1.616,0.768 0.752,0.464 1.248,1.184 0.496,0.72 0.496,1.872 0,1.12 -0.448,2.144 -0.432,1.024 -1.264,1.808 -0.816,0.768 -1.984,1.232 -1.152,0.464 -2.592,0.464 -1.552,0 -2.752,-0.544 -1.184,-0.56 -1.936,-1.424 l 0.704,-1.088 q 0.144,-0.208 0.304,-0.32 0.176,-0.112 0.448,-0.112 0.256,0 0.512,0.224 0.256,0.224 0.64,0.512 0.384,0.272 0.96,0.496 0.592,0.224 1.488,0.224 0.784,0 1.408,-0.24 0.64,-0.24 1.072,-0.64 0.448,-0.4 0.672,-0.928 0.24,-0.544 0.24,-1.152 0,-0.816 -0.496,-1.296 -0.496,-0.48 -1.248,-0.8 -0.752,-0.32 -1.616,-0.592 -0.864,-0.288 -1.616,-0.72 -0.752,-0.448 -1.248,-1.152 -0.496,-0.704 -0.496,-1.872 0,-1.024 0.4,-1.968 0.416,-0.96 1.184,-1.696 0.768,-0.736 1.856,-1.168 1.104,-0.448 2.48,-0.448 1.456,0 2.56,0.496 1.12,0.48 1.92,1.312 z"
           stroke-width="0"
           stroke-linejoin="miter"
           stroke-miterlimit="2"
           fill="#082252"
           stroke="#082252"
           transform="translate(-1.1368683772161603e-13 358.80087499999996) translate(415.32650000000007 57.120000000000005) scale(1) translate(-432.859 16.448)" />
        <path
           id="path210695"
           style="font-style:oblique;font-weight:normal;font-size:32px;line-height:1;font-family:Lato;font-variant-ligatures:none;text-align:center;text-anchor:middle"
           d="m 460.2115,-7.312 q 0.864,0 1.52,-0.368 0.672,-0.384 1.12,-0.992 0.464,-0.624 0.704,-1.392 0.24,-0.768 0.24,-1.552 0,-1.408 -0.72,-2.128 -0.704,-0.72 -1.952,-0.72 -0.864,0 -1.52,0.352 -0.656,0.352 -1.12,0.944 -0.448,0.592 -0.688,1.344 -0.224,0.752 -0.224,1.568 0,1.44 0.688,2.192 0.704,0.752 1.952,0.752 z m 3.216,7.712 q 0,-0.432 -0.08,-0.784 -0.08,-0.368 -0.208,-0.688 -2.112,-0.336 -3.648,-0.24 -1.536,0.08 -2.544,0.464 -0.992,0.384 -1.472,0.992 -0.48,0.608 -0.48,1.312 0,1.152 0.96,1.76 0.976,0.608 2.752,0.608 1.056,0 1.92,-0.288 0.88,-0.272 1.488,-0.736 0.624,-0.464 0.96,-1.088 0.352,-0.624 0.352,-1.312 z m 5.44,-16.016 -0.112,0.944 q -0.08,0.576 -0.64,0.768 l -2.032,0.352 q 0.304,0.832 0.304,1.84 0,0.8 -0.192,1.44 -0.176,0.64 -0.448,1.184 -0.272,0.544 -0.592,1.024 -0.32,0.48 -0.592,0.96 -0.272,0.464 -0.464,0.976 -0.176,0.496 -0.176,1.088 0,0.432 0.144,0.832 0.16,0.384 0.384,0.768 0.24,0.368 0.512,0.752 0.288,0.384 0.512,0.816 0.24,0.432 0.384,0.944 0.16,0.496 0.16,1.104 -0.016,1.136 -0.544,2.144 -0.528,1.024 -1.504,1.808 -0.976,0.784 -2.368,1.232 -1.392,0.464 -3.136,0.464 -1.392,0 -2.544,-0.288 -1.136,-0.288 -1.952,-0.816 -0.8,-0.528 -1.232,-1.28 -0.448,-0.736 -0.448,-1.632 0,-1.024 0.432,-1.808 0.432,-0.784 1.168,-1.344 0.736,-0.576 1.712,-0.944 0.976,-0.368 2.064,-0.544 1.104,-0.176 2.256,-0.16 1.152,0 2.256,0.16 -0.144,-0.304 -0.24,-0.624 -0.08,-0.336 -0.08,-0.72 0,-0.496 0.144,-1.024 0.16,-0.528 0.512,-1.2 -0.608,0.416 -1.36,0.656 -0.752,0.224 -1.712,0.224 -0.928,0 -1.744,-0.304 -0.8,-0.304 -1.408,-0.896 -0.608,-0.592 -0.96,-1.472 -0.352,-0.896 -0.352,-2.08 0,-1.152 0.416,-2.256 0.432,-1.12 1.248,-1.984 0.816,-0.88 2.016,-1.408 1.2,-0.528 2.768,-0.528 0.864,0 1.648,0.208 0.784,0.208 1.408,0.624 z"
           stroke-width="0"
           stroke-linejoin="miter"
           stroke-miterlimit="2"
           fill="#082252"
           stroke="#082252"
           transform="translate(-1.1368683772161603e-13 358.80087499999996) translate(437.75900000000007 57.120000000000005) scale(1) translate(-452.2915 16.448)" />
        <path
           id="path210697"
           style="font-style:oblique;font-weight:normal;font-size:32px;line-height:1;font-family:Lato;font-variant-ligatures:none;text-align:center;text-anchor:middle"
           d="m 473.6955,-11.696 q 0.64,-1.36 1.376,-2.352 0.752,-1.008 1.568,-1.568 0.816,-0.576 1.68,-0.688 0.864,-0.128 1.76,0.256 l -0.512,2.736 q -2.08,-0.832 -3.68,0.608 -1.584,1.44 -2.576,5.2 L 472.4155,0 h -2.784 l 1.952,-16.224 h 1.408 q 0.976,0 0.976,0.96 z"
           stroke-width="0"
           stroke-linejoin="miter"
           stroke-miterlimit="2"
           fill="#082252"
           stroke="#082252"
           transform="translate(-1.1368683772161603e-13 358.80087499999996) translate(458.0990000000001 57.232) scale(1) translate(-469.6315 16.336)" />
        <path
           id="path210699"
           style="font-style:oblique;font-weight:normal;font-size:32px;line-height:1;font-family:Lato;font-variant-ligatures:none;text-align:center;text-anchor:middle"
           d="m 486.3105,-2 q 1.168,0 2.112,-0.64 0.96,-0.64 1.632,-1.696 0.688,-1.072 1.056,-2.464 0.368,-1.392 0.368,-2.912 0,-2.24 -0.896,-3.36 -0.88,-1.136 -2.544,-1.136 -1.184,0 -2.144,0.64 -0.944,0.624 -1.616,1.68 -0.672,1.056 -1.04,2.448 -0.368,1.392 -0.368,2.912 0,2.24 0.88,3.392 0.88,1.136 2.56,1.136 z m -0.272,2.224 q -1.328,0 -2.432,-0.448 -1.104,-0.464 -1.904,-1.328 -0.8,-0.864 -1.248,-2.112 -0.448,-1.248 -0.448,-2.848 0,-2.048 0.64,-3.856 0.64,-1.808 1.76,-3.152 1.12,-1.36 2.624,-2.144 1.52,-0.784 3.264,-0.784 1.328,0 2.432,0.464 1.104,0.448 1.904,1.312 0.8,0.864 1.248,2.112 0.448,1.248 0.448,2.832 0,2.032 -0.64,3.84 -0.64,1.808 -1.76,3.168 -1.104,1.36 -2.624,2.16 -1.52,0.784 -3.264,0.784 z"
           stroke-width="0"
           stroke-linejoin="miter"
           stroke-miterlimit="2"
           fill="#082252"
           stroke="#082252"
           transform="translate(-1.1368683772161603e-13 358.80087499999996) translate(471.4740000000001 57.120000000000005) scale(1) translate(-480.0065 16.448)" />
        <path
           id="path210701"
           style="font-style:oblique;font-weight:normal;font-size:32px;line-height:1;font-family:Lato;font-variant-ligatures:none;text-align:center;text-anchor:middle"
           d="m 508.7755,-2.912 q -0.832,0.912 -1.584,1.52 -0.752,0.608 -1.504,0.976 -0.752,0.352 -1.568,0.496 -0.8,0.144 -1.728,0.144 -1.408,0 -2.496,-0.48 -1.072,-0.48 -1.808,-1.344 -0.72,-0.88 -1.104,-2.096 -0.368,-1.232 -0.368,-2.704 0,-1.968 0.608,-3.776 0.624,-1.808 1.728,-3.2 1.104,-1.392 2.624,-2.224 1.536,-0.832 3.344,-0.832 1.616,0 2.704,0.576 1.088,0.56 1.904,1.648 l -0.896,1.072 q -0.112,0.128 -0.256,0.208 -0.128,0.08 -0.304,0.08 -0.224,0 -0.448,-0.192 -0.208,-0.208 -0.56,-0.448 -0.352,-0.256 -0.88,-0.448 -0.512,-0.208 -1.328,-0.208 -1.104,0 -2.08,0.608 -0.976,0.592 -1.712,1.632 -0.736,1.04 -1.168,2.464 -0.416,1.424 -0.416,3.056 0,0.992 0.224,1.808 0.224,0.8 0.672,1.376 0.448,0.56 1.088,0.88 0.656,0.304 1.52,0.304 1.072,0 1.792,-0.32 0.736,-0.32 1.232,-0.688 0.496,-0.384 0.832,-0.704 0.352,-0.32 0.688,-0.32 0.304,0 0.544,0.272 l 0.704,0.864 z"
           stroke-width="0"
           stroke-linejoin="miter"
           stroke-miterlimit="2"
           fill="#082252"
           stroke="#082252"
           transform="translate(-1.1368683772161603e-13 358.80087499999996) translate(491.0830000000001 57.135999999999996) scale(1) translate(-496.6155 16.432)" />
        <path
           id="path210703"
           style="font-style:oblique;font-weight:normal;font-size:32px;line-height:1;font-family:Lato;font-variant-ligatures:none;text-align:center;text-anchor:middle"
           d="m 519.1215,-14.384 q -1.008,0 -1.856,0.416 -0.848,0.416 -1.504,1.152 -0.656,0.72 -1.12,1.712 -0.464,0.976 -0.72,2.112 2.464,-0.304 3.952,-0.688 1.488,-0.4 2.288,-0.848 0.8,-0.464 1.056,-0.992 0.256,-0.528 0.256,-1.104 0,-0.288 -0.128,-0.592 -0.128,-0.32 -0.416,-0.576 -0.272,-0.256 -0.72,-0.416 -0.448,-0.176 -1.088,-0.176 z m 4.512,11.392 q -0.816,0.848 -1.6,1.456 -0.784,0.592 -1.6,0.992 -0.8,0.4 -1.696,0.576 -0.88,0.192 -1.904,0.192 -1.392,0 -2.496,-0.464 -1.104,-0.464 -1.872,-1.312 -0.768,-0.864 -1.184,-2.08 -0.416,-1.216 -0.416,-2.72 0,-1.248 0.256,-2.48 0.272,-1.248 0.768,-2.368 0.512,-1.12 1.232,-2.08 0.736,-0.96 1.664,-1.648 0.944,-0.704 2.064,-1.104 1.136,-0.4 2.432,-0.4 1.232,0 2.128,0.352 0.896,0.352 1.472,0.896 0.576,0.544 0.848,1.2 0.288,0.656 0.288,1.248 0,1.056 -0.432,1.952 -0.432,0.88 -1.584,1.6 -1.152,0.704 -3.168,1.232 -2.016,0.528 -5.184,0.848 0,0.176 -0.016,0.352 0,0.16 0,0.336 0,2.144 0.928,3.28 0.944,1.12 2.832,1.12 0.768,0 1.36,-0.16 0.608,-0.16 1.072,-0.384 0.48,-0.24 0.832,-0.512 0.368,-0.288 0.656,-0.512 0.304,-0.24 0.56,-0.4 0.256,-0.16 0.512,-0.16 0.304,0 0.544,0.272 z"
           stroke-width="0"
           stroke-linejoin="miter"
           stroke-miterlimit="2"
           fill="#082252"
           stroke="#082252"
           transform="translate(-1.1368683772161603e-13 358.80087499999996) translate(508.3330000000001 57.135999999999996) scale(1) translate(-510.8655 16.432)" />
        <path
           id="path210705"
           style="font-style:oblique;font-weight:normal;font-size:32px;line-height:1;font-family:Lato;font-variant-ligatures:none;text-align:center;text-anchor:middle"
           d="m 530.258,-11.696 q 0.64,-1.36 1.376,-2.352 0.752,-1.008 1.568,-1.568 0.816,-0.576 1.68,-0.688 0.864,-0.128 1.76,0.256 l -0.512,2.736 q -2.08,-0.832 -3.68,0.608 -1.584,1.44 -2.576,5.2 L 528.978,0 h -2.784 l 1.952,-16.224 h 1.408 q 0.976,0 0.976,0.96 z"
           stroke-width="0"
           stroke-linejoin="miter"
           stroke-miterlimit="2"
           fill="#082252"
           stroke="#082252"
           transform="translate(-1.1368683772161603e-13 358.80087499999996) translate(526.6615 57.232) scale(1) translate(-526.194 16.336)" />
        <path
           id="path210707"
           style="font-style:oblique;font-weight:normal;font-size:32px;line-height:1;font-family:Lato;font-variant-ligatures:none;text-align:center;text-anchor:middle"
           d="m 552.0595,-16.208 -10.944,21.04 q -0.176,0.336 -0.416,0.496 -0.224,0.16 -0.576,0.16 h -2.096 l 3.52,-6.448 -4.208,-15.248 h 2.352 q 0.352,0 0.512,0.176 0.16,0.16 0.24,0.416 l 2.608,10.208 q 0.08,0.336 0.128,0.672 0.048,0.336 0.08,0.672 0.144,-0.336 0.288,-0.672 0.144,-0.352 0.304,-0.688 l 5.12,-10.224 q 0.128,-0.256 0.352,-0.4 0.24,-0.16 0.48,-0.16 z"
           stroke-width="0"
           stroke-linejoin="miter"
           stroke-miterlimit="2"
           fill="#082252"
           stroke="#082252"
           transform="translate(-1.1368683772161603e-13 358.80087499999996) translate(540.8070000000001 57.36) scale(1) translate(-537.3395 16.208)" />
        <path
           id="path210709"
           style="font-style:oblique;font-weight:normal;font-size:32px;line-height:1;font-family:Lato;font-variant-ligatures:none;text-align:center;text-anchor:middle"
           d="m 559.399,0 2.864,-23.568 h 2.8 L 562.199,0 Z"
           stroke-width="0"
           stroke-linejoin="miter"
           stroke-miterlimit="2"
           fill="#082252"
           stroke="#082252"
           transform="translate(-1.1368683772161603e-13 358.80087499999996) translate(565.8665000000001 50) scale(1) translate(-559.399 23.568)" />
        <path
           id="path210711"
           style="font-style:oblique;font-weight:normal;font-size:32px;line-height:1;font-family:Lato;font-variant-ligatures:none;text-align:center;text-anchor:middle"
           d="M 571.4185,-16.208 569.4665,0 h -2.8 l 1.952,-16.208 z m 1.088,-5.088 q 0,0.416 -0.176,0.784 -0.16,0.352 -0.448,0.64 -0.272,0.272 -0.64,0.432 -0.352,0.16 -0.736,0.16 -0.368,0 -0.72,-0.16 -0.352,-0.16 -0.624,-0.432 -0.256,-0.288 -0.416,-0.64 -0.16,-0.368 -0.16,-0.784 0,-0.416 0.16,-0.784 0.16,-0.368 0.432,-0.64 0.272,-0.288 0.624,-0.448 0.352,-0.176 0.72,-0.176 0.384,0 0.736,0.16 0.368,0.16 0.64,0.448 0.272,0.272 0.432,0.656 0.176,0.368 0.176,0.784 z"
           stroke-width="0"
           stroke-linejoin="miter"
           stroke-miterlimit="2"
           fill="#082252"
           stroke="#082252"
           transform="translate(-1.1368683772161603e-13 358.80087499999996) translate(576.1340000000001 50.224000000000004) scale(1) translate(-566.6665 23.344)" />
        <path
           id="path210713"
           style="font-style:oblique;font-weight:normal;font-size:32px;line-height:1;font-family:Lato;font-variant-ligatures:none;text-align:center;text-anchor:middle"
           d="m 584.3295,-13.616 q -0.128,0.192 -0.256,0.288 -0.128,0.08 -0.32,0.08 -0.224,0 -0.496,-0.176 -0.256,-0.176 -0.64,-0.384 -0.368,-0.224 -0.912,-0.4 -0.544,-0.192 -1.312,-0.192 -0.72,0 -1.312,0.208 -0.592,0.192 -1.024,0.544 -0.416,0.352 -0.656,0.832 -0.224,0.464 -0.224,0.992 0,0.752 0.496,1.2 0.496,0.448 1.248,0.784 0.752,0.32 1.616,0.624 0.864,0.304 1.616,0.768 0.752,0.464 1.248,1.184 0.496,0.72 0.496,1.872 0,1.12 -0.448,2.144 -0.432,1.024 -1.264,1.808 -0.816,0.768 -1.984,1.232 -1.152,0.464 -2.592,0.464 -1.552,0 -2.752,-0.544 -1.184,-0.56 -1.936,-1.424 l 0.704,-1.088 q 0.144,-0.208 0.304,-0.32 0.176,-0.112 0.448,-0.112 0.256,0 0.512,0.224 0.256,0.224 0.64,0.512 0.384,0.272 0.96,0.496 0.592,0.224 1.488,0.224 0.784,0 1.408,-0.24 0.64,-0.24 1.072,-0.64 0.448,-0.4 0.672,-0.928 0.24,-0.544 0.24,-1.152 0,-0.816 -0.496,-1.296 -0.496,-0.48 -1.248,-0.8 -0.752,-0.32 -1.616,-0.592 -0.864,-0.288 -1.616,-0.72 -0.752,-0.448 -1.248,-1.152 -0.496,-0.704 -0.496,-1.872 0,-1.024 0.4,-1.968 0.416,-0.96 1.184,-1.696 0.768,-0.736 1.856,-1.168 1.104,-0.448 2.48,-0.448 1.456,0 2.56,0.496 1.12,0.48 1.92,1.312 z"
           stroke-width="0"
           stroke-linejoin="miter"
           stroke-miterlimit="2"
           fill="#082252"
           stroke="#082252"
           transform="translate(-1.1368683772161603e-13 358.80087499999996) translate(585.3890000000001 57.120000000000005) scale(1) translate(-572.9215 16.448)" />
        <path
           id="path210715"
           style="font-style:oblique;font-weight:normal;font-size:32px;line-height:1;font-family:Lato;font-variant-ligatures:none;text-align:center;text-anchor:middle"
           d="m 587.974,-3.056 q 0,-0.096 0,-0.24 0,-0.16 0.016,-0.448 0.032,-0.288 0.08,-0.752 0.064,-0.464 0.16,-1.216 l 0.992,-8.112 h -1.808 q -0.224,0 -0.368,-0.144 -0.128,-0.16 -0.096,-0.48 l 0.128,-1.136 2.496,-0.336 1.216,-5.008 q 0.08,-0.24 0.24,-0.384 0.176,-0.16 0.432,-0.16 h 1.488 l -0.688,5.584 h 4.256 l -0.24,2.064 h -4.272 l -0.976,7.968 q -0.08,0.656 -0.128,1.056 -0.048,0.4 -0.08,0.64 -0.016,0.24 -0.032,0.336 0,0.096 0,0.144 0,0.816 0.384,1.216 0.384,0.384 1.024,0.384 0.432,0 0.736,-0.112 0.32,-0.128 0.56,-0.272 0.24,-0.144 0.4,-0.256 0.16,-0.128 0.272,-0.128 0.144,0 0.208,0.064 0.08,0.064 0.144,0.208 l 0.608,1.36 q -0.784,0.688 -1.792,1.088 -0.992,0.384 -2,0.384 -1.552,0 -2.448,-0.848 -0.88,-0.848 -0.912,-2.464 z"
           stroke-width="0"
           stroke-linejoin="miter"
           stroke-miterlimit="2"
           fill="#082252"
           stroke="#082252"
           transform="translate(-1.1368683772161603e-13 358.80087499999996) translate(602.4111 52.096000000000004) scale(1) translate(-586.9436 21.472)" />
        <path
           id="path210717"
           style="font-style:oblique;font-weight:normal;font-size:32px;line-height:1;font-family:Lato;font-variant-ligatures:none;text-align:center;text-anchor:middle"
           d="m 613.809,-14.384 q -1.008,0 -1.856,0.416 -0.848,0.416 -1.504,1.152 -0.656,0.72 -1.12,1.712 -0.464,0.976 -0.72,2.112 2.464,-0.304 3.952,-0.688 1.488,-0.4 2.288,-0.848 0.8,-0.464 1.056,-0.992 0.256,-0.528 0.256,-1.104 0,-0.288 -0.128,-0.592 -0.128,-0.32 -0.416,-0.576 -0.272,-0.256 -0.72,-0.416 -0.448,-0.176 -1.088,-0.176 z m 4.512,11.392 q -0.816,0.848 -1.6,1.456 -0.784,0.592 -1.6,0.992 -0.8,0.4 -1.696,0.576 -0.88,0.192 -1.904,0.192 -1.392,0 -2.496,-0.464 -1.104,-0.464 -1.872,-1.312 -0.768,-0.864 -1.184,-2.08 -0.416,-1.216 -0.416,-2.72 0,-1.248 0.256,-2.48 0.272,-1.248 0.768,-2.368 0.512,-1.12 1.232,-2.08 0.736,-0.96 1.664,-1.648 0.944,-0.704 2.064,-1.104 1.136,-0.4 2.432,-0.4 1.232,0 2.128,0.352 0.896,0.352 1.472,0.896 0.576,0.544 0.848,1.2 0.288,0.656 0.288,1.248 0,1.056 -0.432,1.952 -0.432,0.88 -1.584,1.6 -1.152,0.704 -3.168,1.232 -2.016,0.528 -5.184,0.848 0,0.176 -0.016,0.352 0,0.16 0,0.336 0,2.144 0.928,3.28 0.944,1.12 2.832,1.12 0.768,0 1.36,-0.16 0.608,-0.16 1.072,-0.384 0.48,-0.24 0.832,-0.512 0.368,-0.288 0.656,-0.512 0.304,-0.24 0.56,-0.4 0.256,-0.16 0.512,-0.16 0.304,0 0.544,0.272 z"
           stroke-width="0"
           stroke-linejoin="miter"
           stroke-miterlimit="2"
           fill="#082252"
           stroke="#082252"
           transform="translate(-1.1368683772161603e-13 358.80087499999996) translate(624.0205000000001 57.135999999999996) scale(1) translate(-605.553 16.432)" />
        <path
           id="path210719"
           style="font-style:oblique;font-weight:normal;font-size:32px;line-height:1;font-family:Lato;font-variant-ligatures:none;text-align:center;text-anchor:middle"
           d="m 631.9855,-14.224 q -0.352,-0.08 -0.704,-0.096 -0.336,-0.032 -0.672,-0.032 -0.96,0 -1.856,0.32 -0.896,0.304 -1.68,0.864 -0.784,0.56 -1.424,1.344 -0.64,0.768 -1.104,1.696 -0.448,0.928 -0.704,1.984 -0.256,1.04 -0.256,2.144 0,3.856 2.464,3.856 0.784,0 1.536,-0.48 0.752,-0.496 1.424,-1.36 0.688,-0.88 1.264,-2.064 0.576,-1.2 1.024,-2.624 z m -1.088,9.952 q -0.576,1.024 -1.248,1.856 -0.656,0.832 -1.408,1.424 -0.736,0.576 -1.568,0.896 -0.816,0.32 -1.696,0.32 -0.96,0 -1.744,-0.368 -0.784,-0.384 -1.344,-1.104 -0.544,-0.736 -0.848,-1.792 -0.304,-1.072 -0.304,-2.448 0,-1.44 0.352,-2.8 0.368,-1.376 1.024,-2.592 0.672,-1.216 1.6,-2.224 0.928,-1.024 2.064,-1.76 1.152,-0.752 2.464,-1.152 1.312,-0.416 2.752,-0.416 1.04,0 2.016,0.176 0.992,0.16 1.952,0.576 L 633.0255,0 h -1.472 q -0.56,0 -0.768,-0.288 -0.192,-0.288 -0.192,-0.704 z"
           stroke-width="0"
           stroke-linejoin="miter"
           stroke-miterlimit="2"
           fill="#082252"
           stroke="#082252"
           transform="translate(-1.1368683772161603e-13 358.80087499999996) translate(642.205 57.135999999999996) scale(1) translate(-620.7375 16.432)" />
        <path
           id="path210721"
           style="font-style:oblique;font-weight:normal;font-size:32px;line-height:1;font-family:Lato;font-variant-ligatures:none;text-align:center;text-anchor:middle"
           d="m 647.7045,-13.616 q -0.128,0.192 -0.256,0.288 -0.128,0.08 -0.32,0.08 -0.224,0 -0.496,-0.176 -0.256,-0.176 -0.64,-0.384 -0.368,-0.224 -0.912,-0.4 -0.544,-0.192 -1.312,-0.192 -0.72,0 -1.312,0.208 -0.592,0.192 -1.024,0.544 -0.416,0.352 -0.656,0.832 -0.224,0.464 -0.224,0.992 0,0.752 0.496,1.2 0.496,0.448 1.248,0.784 0.752,0.32 1.616,0.624 0.864,0.304 1.616,0.768 0.752,0.464 1.248,1.184 0.496,0.72 0.496,1.872 0,1.12 -0.448,2.144 -0.432,1.024 -1.264,1.808 -0.816,0.768 -1.984,1.232 -1.152,0.464 -2.592,0.464 -1.552,0 -2.752,-0.544 -1.184,-0.56 -1.936,-1.424 l 0.704,-1.088 q 0.144,-0.208 0.304,-0.32 0.176,-0.112 0.448,-0.112 0.256,0 0.512,0.224 0.256,0.224 0.64,0.512 0.384,0.272 0.96,0.496 0.592,0.224 1.488,0.224 0.784,0 1.408,-0.24 0.64,-0.24 1.072,-0.64 0.448,-0.4 0.672,-0.928 0.24,-0.544 0.24,-1.152 0,-0.816 -0.496,-1.296 -0.496,-0.48 -1.248,-0.8 -0.752,-0.32 -1.616,-0.592 -0.864,-0.288 -1.616,-0.72 -0.752,-0.448 -1.248,-1.152 -0.496,-0.704 -0.496,-1.872 0,-1.024 0.4,-1.968 0.416,-0.96 1.184,-1.696 0.768,-0.736 1.856,-1.168 1.104,-0.448 2.48,-0.448 1.456,0 2.56,0.496 1.12,0.48 1.92,1.312 z"
           stroke-width="0"
           stroke-linejoin="miter"
           stroke-miterlimit="2"
           fill="#082252"
           stroke="#082252"
           transform="translate(-1.1368683772161603e-13 358.80087499999996) translate(660.7640000000001 57.120000000000005) scale(1) translate(-636.2965 16.448)" />
        <path
           id="path210723"
           style="font-style:oblique;font-weight:normal;font-size:32px;line-height:1;font-family:Lato;font-variant-ligatures:none;text-align:center;text-anchor:middle"
           d="m 664.747,-16.208 -10.944,21.04 q -0.176,0.336 -0.416,0.496 -0.224,0.16 -0.576,0.16 h -2.096 l 3.52,-6.448 -4.208,-15.248 h 2.352 q 0.352,0 0.512,0.176 0.16,0.16 0.24,0.416 l 2.608,10.208 q 0.08,0.336 0.128,0.672 0.048,0.336 0.08,0.672 0.144,-0.336 0.288,-0.672 0.144,-0.352 0.304,-0.688 l 5.12,-10.224 q 0.128,-0.256 0.352,-0.4 0.24,-0.16 0.48,-0.16 z"
           stroke-width="0"
           stroke-linejoin="miter"
           stroke-miterlimit="2"
           fill="#082252"
           stroke="#082252"
           transform="translate(-1.1368683772161603e-13 358.80087499999996) translate(677.4945000000001 57.36) scale(1) translate(-650.027 16.208)" />
      </g>
      <g
         id="title"
         style="font-style:normal;font-weight:700;font-size:72px;line-height:1;font-family:'Roboto Condensed';font-variant-ligatures:none;text-align:center;text-anchor:middle"
         transform="translate(0 0)">
        <path
           id="F"
           style="font-style:normal;font-weight:700;font-size:72px;line-height:1;font-family:'Roboto Condensed';font-variant-ligatures:none;text-align:center;text-anchor:middle"
           d="m 333.82812,-20.882812 h -16.0664 V 0 h -10.33594 v -51.1875 h 28.33594 v 8.613281 h -18 v 13.113282 h 16.0664 z"
           stroke-width="0"
           stroke-linejoin="miter"
           stroke-miterlimit="2"
           fill="#082252"
           stroke="#082252"
           transform="translate(0 279.807125) translate(302.0315772881355 50.703125) scale(1) translate(-307.42578 51.1875)" />
        <path
           id="O"
           style="font-style:normal;font-weight:700;font-size:72px;line-height:1;font-family:'Roboto Condensed';font-variant-ligatures:none;text-align:center;text-anchor:middle"
           d="m 377.77344,-20.988281 q 0,10.300781 -4.88672,15.9960935 -4.85156,5.6953125 -13.5,5.6953125 -8.61328,0 -13.53516,-5.625 -4.92187,-5.660156 -4.99219,-15.820312 v -8.753907 q 0,-10.546875 4.88672,-16.453125 4.88672,-5.941406 13.57032,-5.941406 8.54296,0 13.46484,5.835938 4.92187,5.800781 4.99219,16.3125 z m -10.3711,-8.578125 q 0,-6.925781 -1.96875,-10.300781 -1.96875,-3.375 -6.11718,-3.375 -4.11329,0 -6.08204,3.269531 -1.96875,3.234375 -2.03906,9.878906 v 9.105469 q 0,6.714843 2.00391,9.914062 2.0039,3.1640628 6.1875,3.1640628 4.04297,0 6.01172,-3.0937498 1.96875,-3.128907 2.0039,-9.667969 z"
           stroke-width="0"
           stroke-linejoin="miter"
           stroke-miterlimit="2"
           fill="#082252"
           stroke="#082252"
           transform="translate(0 279.807125) translate(335.46516728813555 50) scale(1) translate(-340.85937 51.890625)" />
        <path
           id="O2"
           style="font-style:normal;font-weight:700;font-size:72px;line-height:1;font-family:'Roboto Condensed';font-variant-ligatures:none;text-align:center;text-anchor:middle"
           d="m 421.22656,-20.988281 q 0,10.300781 -4.88672,15.9960935 -4.85156,5.6953125 -13.5,5.6953125 -8.61328,0 -13.53515,-5.625 -4.92188,-5.660156 -4.99219,-15.820312 v -8.753907 q 0,-10.546875 4.88672,-16.453125 4.88672,-5.941406 13.57031,-5.941406 8.54297,0 13.46484,5.835938 4.92188,5.800781 4.99219,16.3125 z m -10.37109,-8.578125 q 0,-6.925781 -1.96875,-10.300781 -1.96875,-3.375 -6.11719,-3.375 -4.11328,0 -6.08203,3.269531 -1.96875,3.234375 -2.03906,9.878906 v 9.105469 q 0,6.714843 2.0039,9.914062 2.00391,3.1640628 6.1875,3.1640628 4.04297,0 6.01172,-3.0937498 1.96875,-3.128907 2.00391,-9.667969 z"
           stroke-width="0"
           stroke-linejoin="miter"
           stroke-miterlimit="2"
           fill="#082252"
           stroke="#082252"
           transform="translate(0 279.807125) translate(378.91829728813553 50) scale(1) translate(-384.3125 51.890625)" />
        <path
           id="D"
           style="font-style:normal;font-weight:700;font-size:72px;line-height:1;font-family:'Roboto Condensed';font-variant-ligatures:none;text-align:center;text-anchor:middle"
           d="m 428.64453,0 v -51.1875 h 13.53516 q 8.96484,0 14.27343,5.695313 5.34375,5.695312 5.44922,15.609375 v 8.296875 q 0,10.089843 -5.34375,15.8554683 Q 451.25,0 441.89844,0 Z m 10.33594,-42.574219 v 33.996094 h 3.09375 q 5.16797,0 7.27734,-2.707031 2.10938,-2.742188 2.21485,-9.421875 v -8.894531 q 0,-7.171875 -2.00391,-9.984375 -2.00391,-2.847657 -6.82031,-2.988282 z"
           stroke-width="0"
           stroke-linejoin="miter"
           stroke-miterlimit="2"
           fill="#082252"
           stroke="#082252"
           transform="translate(0 279.807125) translate(423.2503272881355 50.703125) scale(1) translate(-428.64453 51.1875)" />
        <path
           id="W"
           style="font-style:normal;font-weight:700;font-size:72px;line-height:1;font-family:'Roboto Condensed';font-variant-ligatures:none;text-align:center;text-anchor:middle"
           d="M 502.54297,-19.019531 507.39453,-51.1875 H 517.625 L 508.51953,0 H 498.14844 L 492.17187,-30.164062 486.26562,0 h -10.40625 l -9.14062,-51.1875 h 10.30078 l 4.81641,32.132813 6.01172,-32.132813 h 8.68359 z"
           stroke-width="0"
           stroke-linejoin="miter"
           stroke-miterlimit="2"
           fill="#082252"
           stroke="#082252"
           transform="translate(0 279.807125) translate(461.32454728813553 50.703125) scale(1) translate(-466.71875 51.1875)" />
        <path
           id="N"
           style="font-style:normal;font-weight:700;font-size:72px;line-height:1;font-family:'Roboto Condensed';font-variant-ligatures:none;text-align:center;text-anchor:middle"
           d="M 600.55859,0 H 590.22266 L 575.10547,-33.574219 V 0 h -10.33594 v -51.1875 h 10.33594 l 15.15234,33.609375 V -51.1875 h 10.30078 z"
           stroke-width="0"
           stroke-linejoin="miter"
           stroke-miterlimit="2"
           fill="#082252"
           stroke="#082252"
           transform="translate(0 279.807125) translate(567.5621727118645 50.703125) scale(1) translate(-564.76953 51.1875)" />
        <path
           id="D2"
           style="font-style:normal;font-weight:700;font-size:72px;line-height:1;font-family:'Roboto Condensed';font-variant-ligatures:none;text-align:center;text-anchor:middle"
           d="m 608.92578,0 v -51.1875 h 13.53516 q 8.96484,0 14.27343,5.695313 5.34375,5.695312 5.44922,15.609375 v 8.296875 q 0,10.089843 -5.34375,15.8554683 Q 631.53125,0 622.17969,0 Z m 10.33594,-42.574219 v 33.996094 h 3.09375 q 5.16797,0 7.27734,-2.707031 2.10938,-2.742188 2.21485,-9.421875 v -8.894531 q 0,-7.171875 -2.00391,-9.984375 -2.00391,-2.847657 -6.82031,-2.988282 z"
           stroke-width="0"
           stroke-linejoin="miter"
           stroke-miterlimit="2"
           fill="#082252"
           stroke="#082252"
           transform="translate(0 279.807125) translate(611.7184227118645 50.703125) scale(1) translate(-608.92578 51.1875)" />
        <path
           id="E"
           style="font-style:normal;font-weight:700;font-size:72px;line-height:1;font-family:'Roboto Condensed';font-variant-ligatures:none;text-align:center;text-anchor:middle"
           d="m 676.00391,-22.148437 h -16.10157 v 13.570312 h 19.05469 V 0 h -29.39062 v -51.1875 h 29.32031 v 8.613281 h -18.98438 v 12.09375 h 16.10157 z"
           stroke-width="0"
           stroke-linejoin="miter"
           stroke-miterlimit="2"
           fill="#082252"
           stroke="#082252"
           transform="translate(0 279.807125) translate(652.3590527118645 50.703125) scale(1) translate(-649.56641 51.1875)" />
        <path
           id="R"
           style="font-style:normal;font-weight:700;font-size:72px;line-height:1;font-family:'Roboto Condensed';font-variant-ligatures:none;text-align:center;text-anchor:middle"
           d="m 700.36719,-18.703125 h -5.13282 V 0 h -10.33593 v -51.1875 h 16.48828 q 7.76953,0 11.98828,4.042969 4.25391,4.007812 4.25391,11.425781 0,10.195313 -7.41797,14.273438 l 8.96484,20.9531245 V 0 h -11.10937 z m -5.13282,-8.613281 h 5.8711 q 3.09375,0 4.64062,-2.039063 1.54688,-2.074218 1.54688,-5.519531 0,-7.699219 -6.01172,-7.699219 h -6.04688 z"
           stroke-width="0"
           stroke-linejoin="miter"
           stroke-miterlimit="2"
           fill="#082252"
           stroke="#082252"
           transform="translate(0 279.807125) translate(687.6910827118645 50.703125) scale(1) translate(-684.89844 51.1875)" />
      </g>
      <path
         style="fill:#082252;stroke-width:0.289195;fill-opacity:1"
         d="m 514.12807,381.87529 c -0.10697,-0.10697 -0.19448,-5.29806 -0.19448,-11.53576 0,-11.28724 -0.003,-11.34203 -0.60886,-11.50049 -1.23975,-0.3242 -0.38758,-0.91897 1.44268,-1.00693 l 1.80011,-0.0865 -0.18392,-1.22647 c -0.37348,-2.49054 0.76533,-6.40051 2.55803,-8.78271 1.00482,-1.33524 1.02628,-1.34828 1.6099,-0.97866 0.32018,0.20277 0.22173,0.47671 -0.49212,1.36924 -1.89925,2.37466 -3.11444,6.62226 -2.54436,8.89363 l 0.18909,0.75338 h 9.66797 9.66796 l 0.34434,-1.75023 c 0.18938,-0.96263 0.83645,-2.71251 1.43792,-3.88862 l 1.09359,-2.13839 -1.09949,-1.53379 c -2.00388,-2.79539 -5.17301,-4.49768 -8.90401,-4.78275 -2.38714,-0.18239 -3.30807,-0.76138 -1.69296,-1.06438 1.5334,-0.28767 4.74987,0.32916 6.72847,1.29034 1.94256,0.94365 4.35284,2.9459 4.99847,4.15228 0.56406,1.05395 0.87074,0.46173 0.88431,-1.70766 0.006,-0.95434 0.19074,-3.42696 0.4106,-5.4947 0.25276,-2.37729 0.29927,-3.88193 0.12649,-4.09243 -0.15028,-0.18309 -0.23546,-1.48447 -0.18927,-2.89195 l 0.084,-2.55905 h 6.79608 6.79608 l 0.084,2.55905 c 0.0462,1.40748 -0.0349,2.70886 -0.18023,2.89195 -0.16112,0.20301 -0.12189,1.35259 0.10054,2.9463 0.20061,1.43738 0.46085,4.15147 0.57831,6.03133 0.20438,3.27099 0.26164,3.50019 1.33201,5.33188 1.14228,1.95474 1.80172,3.6969 2.12053,5.60222 l 0.1791,1.07036 1.62957,0.0864 c 1.67529,0.0888 2.44885,0.69907 1.27523,1.00598 -0.60015,0.15694 -0.60625,0.26091 -0.68116,11.62099 l -0.0756,11.46263 -23.44719,0.074 c -12.89596,0.0407 -23.53472,-0.0135 -23.64169,-0.12049 z m 5.58941,-3.27923 v -2.31356 h -2.31356 -2.31355 v 2.31356 2.31355 h 2.31355 2.31356 z m 5.7839,0 v -2.31356 h -2.31356 -2.31356 v 2.31356 2.31355 h 2.31356 2.31356 z m 5.7839,0 v -2.31356 h -2.31356 -2.31356 v 2.31356 2.31355 h 2.31356 2.31356 z m 5.7839,0 v -2.31356 h -2.31356 -2.31356 v 2.31356 2.31355 h 2.31356 2.31356 z m 5.7839,0 v -2.31356 h -2.31356 -2.31356 v 2.31356 2.31355 h 2.31356 2.31356 z m 5.7839,0 v -2.31356 h -2.31356 -2.31356 v 2.31356 2.31355 h 2.31356 2.31356 z m 5.78389,0 v -2.31356 h -2.31356 -2.31355 v 2.31356 2.31355 h 2.31355 2.31356 z m 5.7839,0 v -2.31356 h -2.31356 -2.31356 v 2.31356 2.31355 h 2.31356 2.31356 z m -40.48729,-5.7839 v -2.31356 h -2.31356 -2.31355 v 2.31356 2.31356 h 2.31355 2.31356 z m 5.7839,0 v -2.31356 h -2.31356 -2.31356 v 2.31356 2.31356 h 2.31356 2.31356 z m 5.7839,0 v -2.31356 h -2.31356 -2.31356 v 2.31356 2.31356 h 2.31356 2.31356 z m 5.7839,0 v -2.31356 h -2.31356 -2.31356 v 2.31356 2.31356 h 2.31356 2.31356 z m 5.7839,0 v -2.31356 h -2.31356 -2.31356 v 2.31356 2.31356 h 2.31356 2.31356 z m 5.7839,0 v -2.31356 h -2.31356 -2.31356 v 2.31356 2.31356 h 2.31356 2.31356 z m 5.78389,0 v -2.31356 h -2.31356 -2.31355 v 2.31356 2.31356 h 2.31355 2.31356 z m 5.7839,0 v -2.31356 h -2.31356 -2.31356 v 2.31356 2.31356 h 2.31356 2.31356 z m -40.48729,-5.7839 v -2.31356 h -2.31356 -2.31355 v 2.31356 2.31356 h 2.31355 2.31356 z m 5.7839,0 v -2.31356 h -2.31356 -2.31356 v 2.31356 2.31356 h 2.31356 2.31356 z m 5.7839,0 v -2.31356 h -2.31356 -2.31356 v 2.31356 2.31356 h 2.31356 2.31356 z m 5.7839,0 v -2.31356 h -2.31356 -2.31356 v 2.31356 2.31356 h 2.31356 2.31356 z m 5.7839,0 v -2.31356 h -2.31356 -2.31356 v 2.31356 2.31356 h 2.31356 2.31356 z m 5.7839,0 v -2.31356 h -2.31356 -2.31356 v 2.31356 2.31356 h 2.31356 2.31356 z m 5.78389,0 v -2.31356 h -2.31356 -2.31355 v 2.31356 2.31356 h 2.31355 2.31356 z m 5.7839,0 v -2.31356 h -2.31356 -2.31356 v 2.31356 2.31356 h 2.31356 2.31356 z m -40.48729,-5.7839 v -2.31356 h -2.31356 -2.31355 v 2.31356 2.31356 h 2.31355 2.31356 z m 5.7839,0 v -2.31356 h -2.31356 -2.31356 v 2.31356 2.31356 h 2.31356 2.31356 z m 5.7839,0 v -2.31356 h -2.31356 -2.31356 v 2.31356 2.31356 h 2.31356 2.31356 z m 5.7839,0 v -2.31356 h -2.31356 -2.31356 v 2.31356 2.31356 h 2.31356 2.31356 z m 5.7839,0 v -2.31356 h -2.31356 -2.31356 v 2.31356 2.31356 h 2.31356 2.31356 z m 5.7839,0 v -2.31356 h -2.31356 -2.31356 v 2.31356 2.31356 h 2.31356 2.31356 z m 5.78389,0 v -2.31356 h -2.31356 -2.31355 v 2.31356 2.31356 h 2.31355 2.31356 z m 5.7839,0 v -2.31356 h -2.31356 -2.31356 v 2.31356 2.31356 h 2.31356 2.31356 z m -2.4984,-4.69942 c -0.29092,-1.86539 -0.87656,-3.34586 -2.17359,-5.4947 l -1.17826,-1.95207 h -6.27754 -6.27753 l -1.24399,2.17422 c -1.30689,2.28414 -1.83989,3.61989 -2.16159,5.41715 l -0.19412,1.08448 h 9.84915 9.84915 z m -3.42165,-11.71239 c -0.11581,-1.70987 -0.3603,-4.14995 -0.5433,-5.42241 l -0.33273,-2.31356 h -5.3501 -5.35011 l -0.31818,2.60276 c -0.175,1.43151 -0.40537,3.8716 -0.51193,5.4224 l -0.19375,2.81965 h 6.40533 6.40534 z m -0.44224,-10.77251 v -1.73517 h -5.78389 -5.7839 v 1.73517 1.73517 h 5.7839 5.78389 z m -27.76271,13.9807 c -4.24496,-0.76898 -10.73143,-4.62544 -11.94667,-7.10275 -1.78568,-3.64017 4.5099,-3.04162 10.7083,1.0181 4.43724,2.90623 5.71733,5.69303 2.80138,6.09875 -0.46201,0.0643 -1.16536,0.0579 -1.56301,-0.0141 z m 1.94463,-1.44583 c 0.18601,-0.56629 -1.6959,-2.44736 -3.87083,-3.86911 -3.27826,-2.14299 -7.51957,-3.60334 -8.91265,-3.06876 -0.41119,0.15778 -0.41484,0.26379 -0.0344,0.99939 1.23595,2.39008 8.7375,6.49735 11.5738,6.33694 0.62387,-0.0353 1.18372,-0.2146 1.24412,-0.39846 z"
         id="logo" />
    </g>
  </g>
</svg>
