<?xml version="1.0" encoding="UTF-8" standalone="no"?>
<!-- Created with Inkscape (http://www.inkscape.org/) -->

<svg
   width="13.175193mm"
   height="13.413505mm"
   viewBox="0 0 13.175193 13.413505"
   version="1.1"
   id="svg7559"
   inkscape:version="1.2.1 (9c6d41e410, 2022-07-14)"
   sodipodi:docname="logo.svg"
   xmlns:inkscape="http://www.inkscape.org/namespaces/inkscape"
   xmlns:sodipodi="http://sodipodi.sourceforge.net/DTD/sodipodi-0.dtd"
   xmlns="http://www.w3.org/2000/svg"
   xmlns:svg="http://www.w3.org/2000/svg">
  <sodipodi:namedview
     id="namedview7561"
     pagecolor="#ffffff"
     bordercolor="#666666"
     borderopacity="1.0"
     inkscape:showpageshadow="2"
     inkscape:pageopacity="0.0"
     inkscape:pagecheckerboard="0"
     inkscape:deskcolor="#d1d1d1"
     inkscape:document-units="mm"
     showgrid="false"
     inkscape:zoom="0.75544332"
     inkscape:cx="10.589808"
     inkscape:cy="167.45134"
     inkscape:window-width="1920"
     inkscape:window-height="1027"
     inkscape:window-x="1916"
     inkscape:window-y="-4"
     inkscape:window-maximized="1"
     inkscape:current-layer="layer1" />
  <defs
     id="defs7556" />
  <g
     inkscape:label="Calque 1"
     inkscape:groupmode="layer"
     id="layer1"
     transform="translate(-102.33574,-104.31801)">
    <path
       style="fill:#082252;fill-opacity:1;stroke-width:0.0765162"
       d="m 102.70279,117.69604 c -0.0283,-0.0283 -0.0514,-1.40177 -0.0514,-3.05217 0,-2.98641 -8e-4,-3.00091 -0.1611,-3.04283 -0.32802,-0.0858 -0.10255,-0.24315 0.38171,-0.26642 l 0.47628,-0.0229 -0.0487,-0.3245 c -0.0988,-0.65896 0.20249,-1.69347 0.67681,-2.32376 0.26586,-0.35328 0.27154,-0.35673 0.42595,-0.25894 0.0847,0.0537 0.0587,0.12613 -0.1302,0.36228 -0.50251,0.6283 -0.82403,1.75214 -0.6732,2.35311 l 0.05,0.19933 h 2.55798 2.55799 l 0.0911,-0.46308 c 0.0501,-0.2547 0.22131,-0.71769 0.38045,-1.02887 l 0.28935,-0.56578 -0.29091,-0.40581 c -0.53019,-0.73962 -1.36869,-1.19001 -2.35585,-1.26544 -0.6316,-0.0483 -0.87526,-0.20145 -0.44793,-0.28162 0.40571,-0.0761 1.25674,0.0871 1.78024,0.34141 0.51397,0.24967 1.15169,0.77943 1.32251,1.09862 0.14924,0.27886 0.23038,0.12217 0.23398,-0.45182 0.002,-0.2525 0.0505,-0.90672 0.10863,-1.4538 0.0669,-0.629 0.0792,-1.0271 0.0335,-1.08279 -0.0398,-0.0485 -0.0623,-0.39277 -0.0501,-0.76517 l 0.0222,-0.67708 h 1.79813 1.79813 l 0.0222,0.67708 c 0.0122,0.3724 -0.009,0.71672 -0.0477,0.76517 -0.0426,0.0537 -0.0323,0.35787 0.0266,0.77954 0.0531,0.38031 0.12193,1.09841 0.15301,1.59579 0.0541,0.86545 0.0692,0.92609 0.35243,1.41072 0.30222,0.5172 0.4767,0.97814 0.56105,1.48226 l 0.0474,0.2832 0.43116,0.0229 c 0.44325,0.0235 0.64792,0.18496 0.3374,0.26616 -0.15879,0.0415 -0.1604,0.069 -0.18022,3.07472 l -0.02,3.03282 -6.20374,0.0196 c -3.41206,0.0108 -6.2269,-0.004 -6.2552,-0.0319 z m 1.47887,-0.86763 v -0.61213 h -0.61213 -0.61213 v 0.61213 0.61213 h 0.61213 0.61213 z m 1.53032,0 v -0.61213 h -0.61213 -0.61213 v 0.61213 0.61213 h 0.61213 0.61213 z m 1.53032,0 v -0.61213 h -0.61213 -0.61213 v 0.61213 0.61213 h 0.61213 0.61213 z m 1.53033,0 v -0.61213 h -0.61213 -0.61213 v 0.61213 0.61213 h 0.61213 0.61213 z m 1.53032,0 v -0.61213 h -0.61213 -0.61213 v 0.61213 0.61213 h 0.61213 0.61213 z m 1.53032,0 v -0.61213 h -0.61213 -0.61212 v 0.61213 0.61213 h 0.61212 0.61213 z m 1.53033,0 v -0.61213 h -0.61213 -0.61213 v 0.61213 0.61213 h 0.61213 0.61213 z m 1.53032,0 v -0.61213 h -0.61213 -0.61213 v 0.61213 0.61213 h 0.61213 0.61213 z m -10.71226,-1.53032 v -0.61213 h -0.61213 -0.61213 v 0.61213 0.61213 h 0.61213 0.61213 z m 1.53032,0 v -0.61213 h -0.61213 -0.61213 v 0.61213 0.61213 h 0.61213 0.61213 z m 1.53032,0 v -0.61213 h -0.61213 -0.61213 v 0.61213 0.61213 h 0.61213 0.61213 z m 1.53033,0 v -0.61213 h -0.61213 -0.61213 v 0.61213 0.61213 h 0.61213 0.61213 z m 1.53032,0 v -0.61213 h -0.61213 -0.61213 v 0.61213 0.61213 h 0.61213 0.61213 z m 1.53032,0 v -0.61213 h -0.61213 -0.61212 v 0.61213 0.61213 h 0.61212 0.61213 z m 1.53033,0 v -0.61213 h -0.61213 -0.61213 v 0.61213 0.61213 h 0.61213 0.61213 z m 1.53032,0 v -0.61213 h -0.61213 -0.61213 v 0.61213 0.61213 h 0.61213 0.61213 z m -10.71226,-1.53032 v -0.61213 h -0.61213 -0.61213 v 0.61213 0.61213 h 0.61213 0.61213 z m 1.53032,0 v -0.61213 h -0.61213 -0.61213 v 0.61213 0.61213 h 0.61213 0.61213 z m 1.53032,0 v -0.61213 h -0.61213 -0.61213 v 0.61213 0.61213 h 0.61213 0.61213 z m 1.53033,0 v -0.61213 h -0.61213 -0.61213 v 0.61213 0.61213 h 0.61213 0.61213 z m 1.53032,0 v -0.61213 h -0.61213 -0.61213 v 0.61213 0.61213 h 0.61213 0.61213 z m 1.53032,0 v -0.61213 h -0.61213 -0.61212 v 0.61213 0.61213 h 0.61212 0.61213 z m 1.53033,0 v -0.61213 h -0.61213 -0.61213 v 0.61213 0.61213 h 0.61213 0.61213 z m 1.53032,0 v -0.61213 h -0.61213 -0.61213 v 0.61213 0.61213 h 0.61213 0.61213 z m -10.71226,-1.53033 v -0.61213 h -0.61213 -0.61213 v 0.61213 0.61213 h 0.61213 0.61213 z m 1.53032,0 v -0.61213 h -0.61213 -0.61213 v 0.61213 0.61213 h 0.61213 0.61213 z m 1.53032,0 v -0.61213 h -0.61213 -0.61213 v 0.61213 0.61213 h 0.61213 0.61213 z m 1.53033,0 v -0.61213 h -0.61213 -0.61213 v 0.61213 0.61213 h 0.61213 0.61213 z m 1.53032,0 v -0.61213 h -0.61213 -0.61213 v 0.61213 0.61213 h 0.61213 0.61213 z m 1.53032,0 v -0.61213 h -0.61213 -0.61212 v 0.61213 0.61213 h 0.61212 0.61213 z m 1.53033,0 v -0.61213 h -0.61213 -0.61213 v 0.61213 0.61213 h 0.61213 0.61213 z m 1.53032,0 v -0.61213 h -0.61213 -0.61213 v 0.61213 0.61213 h 0.61213 0.61213 z m -0.66104,-1.24338 c -0.077,-0.49356 -0.23192,-0.88526 -0.57509,-1.45381 l -0.31175,-0.51649 h -1.66093 -1.66093 l -0.32914,0.57527 c -0.34578,0.60434 -0.48681,0.95776 -0.57192,1.43328 l -0.0514,0.28694 h 2.60592 2.60592 z m -0.90531,-3.09891 c -0.0306,-0.4524 -0.0953,-1.09801 -0.14375,-1.43468 l -0.088,-0.61213 h -1.41555 -1.41555 l -0.0842,0.68865 c -0.0463,0.37875 -0.10726,1.02436 -0.13545,1.43468 l -0.0513,0.74603 h 1.69474 1.69475 z m -0.11701,-2.85022 v -0.4591 h -1.53032 -1.53032 v 0.4591 0.45909 h 1.53032 1.53032 z m -7.34555,3.69906 c -1.12314,-0.20346 -2.83936,-1.22382 -3.16089,-1.87927 -0.47246,-0.96313 1.19325,-0.80477 2.83324,0.26937 1.17402,0.76894 1.51271,1.50628 0.7412,1.61363 -0.12224,0.017 -0.30834,0.0153 -0.41355,-0.004 z m 0.51452,-0.38255 c 0.0492,-0.14983 -0.44871,-0.64753 -1.02416,-1.0237 -0.86737,-0.567 -1.98955,-0.95338 -2.35814,-0.81194 -0.10879,0.0417 -0.10976,0.0698 -0.009,0.26442 0.32701,0.63238 2.3118,1.71909 3.06224,1.67665 0.16506,-0.009 0.31319,-0.0568 0.32917,-0.10543 z"
       id="logo" />
  </g>
</svg>
