<?xml version="1.0" encoding="UTF-8" standalone="no"?>
<!-- Created with Inkscape (http://www.inkscape.org/) -->

<svg
   width="54.654285mm"
   height="54.654285mm"
   viewBox="0 0 50 50"
   version="1.1"
   id="svg9531"
   inkscape:version="1.2.1 (9c6d41e410, 2022-07-14)"
   sodipodi:docname="splash.svg"
   xmlns:inkscape="http://www.inkscape.org/namespaces/inkscape"
   xmlns:sodipodi="http://sodipodi.sourceforge.net/DTD/sodipodi-0.dtd"
   xmlns="http://www.w3.org/2000/svg"
   xmlns:svg="http://www.w3.org/2000/svg">
  <g
     inkscape:groupmode="layer"
     id="layer2"
     inkscape:label="Calque 2">
    <circle
       style="fill:#4d6082;fill-opacity:1;stroke:none;stroke-width:0.264999;stroke-linecap:round;stroke-linejoin:round;stroke-dasharray:none;stroke-opacity:1"
       id="path10248"
       cx="25"
       cy="25"
       r="24" />
    <circle
       style="fill:#2a416a;fill-opacity:1;stroke:none;stroke-width:0.264999;stroke-linecap:round;stroke-linejoin:round;stroke-dasharray:none;stroke-opacity:1"
       id="path10246"
       cx="25"
       cy="25"
       r="20" />
    <circle
       style="fill:#082252;fill-opacity:1;stroke:none;stroke-width:0.264999;stroke-linecap:round;stroke-linejoin:round;stroke-dasharray:none;stroke-opacity:1"
       id="path10244"
       cx="25"
       cy="25"
       r="16" />
    <circle
       style="fill:#ffffff;fill-opacity:1;stroke:none;stroke-width:0.264999;stroke-linecap:round;stroke-linejoin:round;stroke-dasharray:none;stroke-opacity:1"
       id="path10242"
       cx="25"
       cy="25"
       r="12" />
  </g>
  <g
     inkscape:label="Calque 1"
     inkscape:groupmode="layer"
     id="layer1"
     transform="translate(18.5,31)">
    <path
       style="fill:#2a416a;fill-opacity:1;stroke-width:0.0765162"
       d="m 0,0 c -0.0283,-0.0283 -0.0515,-1.40178 -0.0515,-3.05217 0,-2.98641 -7.9e-4,-3.00091 -0.16109,-3.04284 -0.32802,-0.0858 -0.10255,-0.24314 0.38171,-0.26641 l 0.47628,-0.0229 -0.0487,-0.3245 c -0.0988,-0.65896 0.20249,-1.69347 0.67681,-2.32376 0.26586,-0.35328 0.27153,-0.35673 0.42595,-0.25894 0.0847,0.0537 0.0587,0.12613 -0.13021,0.36228 -0.50251,0.62829 -0.82403,1.75214 -0.67319,2.3531 l 0.05,0.19934 h 2.55798 2.55798 l 0.0911,-0.46309 c 0.0501,-0.25469 0.22131,-0.71768 0.38045,-1.02886 l 0.28935,-0.56578 -0.29091,-0.40582 c -0.53019,-0.73961 -1.36869,-1.19001 -2.35585,-1.26543 -0.6316,-0.0483 -0.87526,-0.20145 -0.44793,-0.28162 0.40571,-0.0761 1.25673,0.0871 1.78024,0.3414 0.51397,0.24968 1.15169,0.77944 1.32251,1.09863 0.14924,0.27885 0.23038,0.12216 0.23397,-0.45182 0.002,-0.2525 0.0505,-0.90672 0.10864,-1.45381 0.0669,-0.62899 0.0792,-1.02709 0.0335,-1.08279 -0.0398,-0.0484 -0.0623,-0.39276 -0.0501,-0.76516 l 0.0222,-0.67708 h 1.79813 1.79812 l 0.0222,0.67708 c 0.0122,0.3724 -0.009,0.71672 -0.0477,0.76516 -0.0426,0.0537 -0.0323,0.35788 0.0266,0.77955 0.0531,0.3803 0.12194,1.09841 0.15302,1.59578 0.0541,0.86545 0.0692,0.9261 0.35242,1.41073 0.30223,0.51719 0.47671,0.97814 0.56106,1.48226 l 0.0474,0.28319 0.43115,0.0229 c 0.44326,0.0235 0.64793,0.18497 0.33741,0.26617 -0.15879,0.0415 -0.1604,0.069 -0.18022,3.07472 l -0.02,3.03282 -6.20373,0.0196 c -3.41206,0.0108 -6.2269,-0.004 -6.2552,-0.0319 z m 1.47886,-0.86763 v -0.61213 h -0.61212 -0.61213 v 0.61213 0.61213 h 0.61213 0.61212 z m 1.53033,0 v -0.61213 h -0.61213 -0.61213 v 0.61213 0.61213 h 0.61213 0.61213 z m 1.53032,0 v -0.61213 h -0.61213 -0.61213 v 0.61213 0.61213 h 0.61213 0.61213 z m 1.53033,0 v -0.61213 h -0.61213 -0.61213 v 0.61213 0.61213 h 0.61213 0.61213 z m 1.53032,0 v -0.61213 h -0.61213 -0.61213 v 0.61213 0.61213 h 0.61213 0.61213 z m 1.53032,0 v -0.61213 h -0.61213 -0.61213 v 0.61213 0.61213 h 0.61213 0.61213 z m 1.53032,0 v -0.61213 h -0.61213 -0.61212 v 0.61213 0.61213 h 0.61212 0.61213 z m 1.53033,0 v -0.61213 h -0.61213 -0.61213 v 0.61213 0.61213 h 0.61213 0.61213 z m -10.71227,-1.53032 v -0.61213 h -0.61212 -0.61213 v 0.61213 0.61213 h 0.61213 0.61212 z m 1.53033,0 v -0.61213 h -0.61213 -0.61213 v 0.61213 0.61213 h 0.61213 0.61213 z m 1.53032,0 v -0.61213 h -0.61213 -0.61213 v 0.61213 0.61213 h 0.61213 0.61213 z m 1.53033,0 v -0.61213 h -0.61213 -0.61213 v 0.61213 0.61213 h 0.61213 0.61213 z m 1.53032,0 v -0.61213 h -0.61213 -0.61213 v 0.61213 0.61213 h 0.61213 0.61213 z m 1.53032,0 v -0.61213 h -0.61213 -0.61213 v 0.61213 0.61213 h 0.61213 0.61213 z m 1.53032,0 v -0.61213 h -0.61213 -0.61212 v 0.61213 0.61213 h 0.61212 0.61213 z m 1.53033,0 v -0.61213 h -0.61213 -0.61213 v 0.61213 0.61213 h 0.61213 0.61213 z m -10.71227,-1.53033 v -0.61213 h -0.61212 -0.61213 v 0.61213 0.61213 h 0.61213 0.61212 z m 1.53033,0 v -0.61213 h -0.61213 -0.61213 v 0.61213 0.61213 h 0.61213 0.61213 z m 1.53032,0 v -0.61213 h -0.61213 -0.61213 v 0.61213 0.61213 h 0.61213 0.61213 z m 1.53033,0 v -0.61213 h -0.61213 -0.61213 v 0.61213 0.61213 h 0.61213 0.61213 z m 1.53032,0 v -0.61213 h -0.61213 -0.61213 v 0.61213 0.61213 h 0.61213 0.61213 z m 1.53032,0 v -0.61213 h -0.61213 -0.61213 v 0.61213 0.61213 h 0.61213 0.61213 z m 1.53032,0 v -0.61213 h -0.61213 -0.61212 v 0.61213 0.61213 h 0.61212 0.61213 z m 1.53033,0 v -0.61213 h -0.61213 -0.61213 v 0.61213 0.61213 h 0.61213 0.61213 z m -10.71227,-1.53032 v -0.61213 h -0.61212 -0.61213 v 0.61213 0.61213 h 0.61213 0.61212 z m 1.53033,0 v -0.61213 h -0.61213 -0.61213 v 0.61213 0.61213 h 0.61213 0.61213 z m 1.53032,0 v -0.61213 h -0.61213 -0.61213 v 0.61213 0.61213 h 0.61213 0.61213 z m 1.53033,0 v -0.61213 h -0.61213 -0.61213 v 0.61213 0.61213 h 0.61213 0.61213 z m 1.53032,0 v -0.61213 h -0.61213 -0.61213 v 0.61213 0.61213 h 0.61213 0.61213 z m 1.53032,0 v -0.61213 h -0.61213 -0.61213 v 0.61213 0.61213 h 0.61213 0.61213 z m 1.53032,0 v -0.61213 h -0.61213 -0.61212 v 0.61213 0.61213 h 0.61212 0.61213 z m 1.53033,0 v -0.61213 h -0.61213 -0.61213 v 0.61213 0.61213 h 0.61213 0.61213 z m -0.66104,-1.24339 c -0.077,-0.49355 -0.23192,-0.88526 -0.57509,-1.4538 l -0.31175,-0.51649 h -1.66093 -1.66093 l -0.32914,0.57526 c -0.34578,0.60435 -0.48681,0.95777 -0.57192,1.43329 l -0.0514,0.28694 h 2.60592 2.60592 z m -0.90531,-3.0989 c -0.0306,-0.4524 -0.0953,-1.09801 -0.14375,-1.43468 l -0.088,-0.61213 h -1.41555 -1.41555 l -0.0842,0.68865 c -0.0463,0.37875 -0.10725,1.02436 -0.13544,1.43467 l -0.0513,0.74604 h 1.69475 1.69474 z m -0.11701,-2.85023 v -0.45909 h -1.53032 -1.53032 v 0.45909 0.4591 h 1.53032 1.53032 z m -7.34555,3.69906 c -1.12315,-0.20346 -2.83936,-1.22381 -3.16089,-1.87927 -0.47246,-0.96312 1.19325,-0.80476 2.83324,0.26938 1.17402,0.76894 1.51271,1.50628 0.7412,1.61362 -0.12224,0.017 -0.30834,0.0153 -0.41355,-0.004 z m 0.51452,-0.38254 c 0.0492,-0.14983 -0.44871,-0.64753 -1.02416,-1.0237 -0.86737,-0.567 -1.98955,-0.95339 -2.35814,-0.81194 -0.10879,0.0417 -0.10976,0.0698 -0.009,0.26442 0.32701,0.63237 2.3118,1.71909 3.06223,1.67665 0.16507,-0.009 0.3132,-0.0568 0.32918,-0.10543 z"
       id="logo" />
  </g>
</svg>
