<?xml version="1.0" encoding="UTF-8" standalone="no"?>
<!-- Created with Inkscape (http://www.inkscape.org/) -->

<svg
   width="50"
   height="30"
   viewBox="0 0 50 30"
   version="1.1"
   id="svg907"
   inkscape:version="1.2.1 (9c6d41e410, 2022-07-14)"
   sodipodi:docname="visitcard.svg"
   xmlns:inkscape="http://www.inkscape.org/namespaces/inkscape"
   xmlns:sodipodi="http://sodipodi.sourceforge.net/DTD/sodipodi-0.dtd"
   xmlns:xlink="http://www.w3.org/1999/xlink"
   xmlns="http://www.w3.org/2000/svg"
   xmlns:svg="http://www.w3.org/2000/svg">
  <defs
     id="defs904">
    <linearGradient
       inkscape:collect="always"
       id="linearGradient4287">
      <stop
         style="stop-color:#082252;stop-opacity:1;"
         offset="0"
         id="stop4283" />
      <stop
         style="stop-color:#2a416a;stop-opacity:1;"
         offset="1"
         id="stop4285" />
    </linearGradient>
    <linearGradient
       inkscape:collect="always"
       xlink:href="#linearGradient4287"
       id="linearGradient4289"
       x1="156.16098"
       y1="133.65285"
       x2="147.75233"
       y2="104.09518"
       gradientUnits="userSpaceOnUse" />
    <clipPath
       clipPathUnits="userSpaceOnUse"
       id="clipPath6534">
      <rect
         style="fill:#fcfcfc;fill-opacity:1;stroke-width:0.264999;stroke-linecap:round;stroke-linejoin:round"
         id="rect6536"
         width="50"
         height="30"
         x="0"
         y="0" />
    </clipPath>
  </defs>
    <rect
       style="fill:#ffffff;fill-opacity:1;stroke:none;stroke-width:0.264999;stroke-linecap:round;stroke-linejoin:round;stroke-dasharray:none;stroke-opacity:1"
       id="rect14109"
       width="50"
       height="30"
       x="0"
       y="0" />
   <circle
      style="fill:url(#linearGradient4289);stroke-width:0.264999;stroke-linecap:round;stroke-linejoin:round;fill-opacity:1"
      id="path3997"
      cx="70"
      cy="0"
      r="44"
      clip-path="url(#clipPath6534)" />
  <g
     inkscape:label="Calque 1"
     inkscape:groupmode="layer"
     id="layer1"
     transform="translate(-110.04084,-103.96777)">
    <path
       style="fill:#fcfcfc;fill-opacity:1;stroke-width:0.0765162"
       d="m 144.80698,120.14869 c -0.0283,-0.0283 -0.0515,-1.40178 -0.0515,-3.05217 0,-2.98642 -7.9e-4,-3.00091 -0.16109,-3.04284 -0.32802,-0.0858 -0.10255,-0.24314 0.38171,-0.26642 l 0.47628,-0.0229 -0.0487,-0.32451 c -0.0988,-0.65895 0.20249,-1.69346 0.67681,-2.32376 0.26586,-0.35328 0.27154,-0.35673 0.42595,-0.25893 0.0847,0.0537 0.0587,0.12613 -0.13021,0.36228 -0.50251,0.62829 -0.82402,1.75214 -0.67319,2.3531 l 0.05,0.19933 h 2.55798 2.55798 l 0.0911,-0.46308 c 0.0501,-0.25469 0.22131,-0.71768 0.38045,-1.02886 l 0.28935,-0.56578 -0.29091,-0.40582 c -0.53019,-0.73961 -1.36869,-1.19001 -2.35585,-1.26544 -0.6316,-0.0483 -0.87526,-0.20144 -0.44793,-0.28161 0.40571,-0.0761 1.25673,0.0871 1.78024,0.3414 0.51397,0.24967 1.15169,0.77944 1.32251,1.09862 0.14924,0.27886 0.23038,0.12217 0.23397,-0.45181 0.002,-0.25251 0.0505,-0.90672 0.10864,-1.45381 0.0669,-0.62899 0.0792,-1.02709 0.0335,-1.08279 -0.0398,-0.0484 -0.0623,-0.39277 -0.0501,-0.76516 l 0.0222,-0.67708 h 1.79813 1.79813 l 0.0222,0.67708 c 0.0122,0.37239 -0.009,0.71672 -0.0477,0.76516 -0.0426,0.0537 -0.0323,0.35787 0.0266,0.77954 0.0531,0.38031 0.12193,1.09841 0.15301,1.59579 0.0541,0.86545 0.0692,0.92609 0.35242,1.41073 0.30223,0.51719 0.47671,0.97814 0.56106,1.48225 l 0.0474,0.2832 0.43116,0.0229 c 0.44325,0.0235 0.64792,0.18496 0.3374,0.26617 -0.15879,0.0415 -0.1604,0.069 -0.18022,3.07472 l -0.02,3.03282 -6.20373,0.0196 c -3.41206,0.0108 -6.2269,-0.004 -6.2552,-0.0319 z m 1.47887,-0.86763 v -0.61213 h -0.61213 -0.61213 v 0.61213 0.61213 h 0.61213 0.61213 z m 1.53032,0 v -0.61213 h -0.61213 -0.61213 v 0.61213 0.61213 h 0.61213 0.61213 z m 1.53032,0 v -0.61213 h -0.61213 -0.61213 v 0.61213 0.61213 h 0.61213 0.61213 z m 1.53033,0 v -0.61213 h -0.61213 -0.61213 v 0.61213 0.61213 h 0.61213 0.61213 z m 1.53032,0 v -0.61213 h -0.61213 -0.61213 v 0.61213 0.61213 h 0.61213 0.61213 z m 1.53032,0 v -0.61213 h -0.61213 -0.61213 v 0.61213 0.61213 h 0.61213 0.61213 z m 1.53032,0 v -0.61213 h -0.61213 -0.61212 v 0.61213 0.61213 h 0.61212 0.61213 z m 1.53033,0 v -0.61213 h -0.61213 -0.61213 v 0.61213 0.61213 h 0.61213 0.61213 z m -10.71226,-1.53033 v -0.61212 h -0.61213 -0.61213 v 0.61212 0.61213 h 0.61213 0.61213 z m 1.53032,0 v -0.61212 h -0.61213 -0.61213 v 0.61212 0.61213 h 0.61213 0.61213 z m 1.53032,0 v -0.61212 h -0.61213 -0.61213 v 0.61212 0.61213 h 0.61213 0.61213 z m 1.53033,0 v -0.61212 h -0.61213 -0.61213 v 0.61212 0.61213 h 0.61213 0.61213 z m 1.53032,0 v -0.61212 h -0.61213 -0.61213 v 0.61212 0.61213 h 0.61213 0.61213 z m 1.53032,0 v -0.61212 h -0.61213 -0.61213 v 0.61212 0.61213 h 0.61213 0.61213 z m 1.53032,0 v -0.61212 h -0.61213 -0.61212 v 0.61212 0.61213 h 0.61212 0.61213 z m 1.53033,0 v -0.61212 h -0.61213 -0.61213 v 0.61212 0.61213 h 0.61213 0.61213 z m -10.71226,-1.53032 v -0.61213 h -0.61213 -0.61213 v 0.61213 0.61213 h 0.61213 0.61213 z m 1.53032,0 v -0.61213 h -0.61213 -0.61213 v 0.61213 0.61213 h 0.61213 0.61213 z m 1.53032,0 v -0.61213 h -0.61213 -0.61213 v 0.61213 0.61213 h 0.61213 0.61213 z m 1.53033,0 v -0.61213 h -0.61213 -0.61213 v 0.61213 0.61213 h 0.61213 0.61213 z m 1.53032,0 v -0.61213 h -0.61213 -0.61213 v 0.61213 0.61213 h 0.61213 0.61213 z m 1.53032,0 v -0.61213 h -0.61213 -0.61213 v 0.61213 0.61213 h 0.61213 0.61213 z m 1.53032,0 v -0.61213 h -0.61213 -0.61212 v 0.61213 0.61213 h 0.61212 0.61213 z m 1.53033,0 v -0.61213 h -0.61213 -0.61213 v 0.61213 0.61213 h 0.61213 0.61213 z m -10.71226,-1.53032 v -0.61213 h -0.61213 -0.61213 v 0.61213 0.61213 h 0.61213 0.61213 z m 1.53032,0 v -0.61213 h -0.61213 -0.61213 v 0.61213 0.61213 h 0.61213 0.61213 z m 1.53032,0 v -0.61213 h -0.61213 -0.61213 v 0.61213 0.61213 h 0.61213 0.61213 z m 1.53033,0 v -0.61213 h -0.61213 -0.61213 v 0.61213 0.61213 h 0.61213 0.61213 z m 1.53032,0 v -0.61213 h -0.61213 -0.61213 v 0.61213 0.61213 h 0.61213 0.61213 z m 1.53032,0 v -0.61213 h -0.61213 -0.61213 v 0.61213 0.61213 h 0.61213 0.61213 z m 1.53032,0 v -0.61213 h -0.61213 -0.61212 v 0.61213 0.61213 h 0.61212 0.61213 z m 1.53033,0 v -0.61213 h -0.61213 -0.61213 v 0.61213 0.61213 h 0.61213 0.61213 z m -0.66104,-1.24339 c -0.077,-0.49355 -0.23192,-0.88526 -0.57509,-1.45381 l -0.31175,-0.51648 h -1.66093 -1.66093 l -0.32914,0.57526 c -0.34578,0.60435 -0.48681,0.95776 -0.57192,1.43329 l -0.0514,0.28693 h 2.60592 2.60592 z m -0.90531,-3.0989 c -0.0306,-0.45241 -0.0953,-1.09801 -0.14375,-1.43468 l -0.088,-0.61213 h -1.41555 -1.41555 l -0.0842,0.68864 c -0.0463,0.37876 -0.10726,1.02437 -0.13545,1.43468 l -0.0513,0.74603 h 1.69475 1.69474 z m -0.11701,-2.85023 v -0.4591 h -1.53032 -1.53032 v 0.4591 0.4591 h 1.53032 1.53032 z m -7.34555,3.69906 c -1.12314,-0.20346 -2.83936,-1.22381 -3.16089,-1.87927 -0.47246,-0.96313 1.19325,-0.80476 2.83324,0.26937 1.17402,0.76894 1.51271,1.50628 0.7412,1.61363 -0.12224,0.017 -0.30834,0.0153 -0.41355,-0.004 z m 0.51452,-0.38254 c 0.0492,-0.14983 -0.44871,-0.64753 -1.02416,-1.0237 -0.86737,-0.567 -1.98955,-0.95339 -2.35814,-0.81195 -0.10879,0.0417 -0.10976,0.0698 -0.009,0.26442 0.32701,0.63238 2.3118,1.7191 3.06224,1.67665 0.16506,-0.009 0.31319,-0.0568 0.32917,-0.10542 z"
       id="logo" />
    <g
       id="g7151"
       transform="matrix(0.14700069,0,0,0.14700069,107.88242,99.301852)">
      <g
         id="slogan"
         style="font-style:oblique;font-weight:normal;font-size:32px;line-height:1;font-family:Lato;font-variant-ligatures:none;text-align:center;text-anchor:middle"
         transform="matrix(0.26458333,0,0,0.26458333,-22.877751,31.543223)">
        <path
           id="path210685"
           style="font-style:oblique;font-weight:normal;font-size:32px;line-height:1;font-family:Lato;font-variant-ligatures:none;text-align:center;text-anchor:middle"
           d="M 386.23,-22.928 383.398,0 h -2.608 l 2.08,-16.944 q 0.048,-0.32 0.112,-0.704 0.08,-0.384 0.176,-0.8 l -8.944,14.416 q -0.416,0.688 -1.152,0.688 h -0.432 q -0.352,0 -0.624,-0.176 -0.256,-0.176 -0.368,-0.512 l -5.536,-14.416 q -0.016,0.384 -0.032,0.768 -0.016,0.368 -0.048,0.688 L 363.958,0 h -2.64 l 2.816,-22.928 h 2.208 q 0.4,0 0.576,0.112 0.176,0.096 0.4,0.4 L 372.87,-8 q 0.112,0.32 0.192,0.64 0.08,0.32 0.16,0.656 0.16,-0.336 0.32,-0.656 0.16,-0.32 0.352,-0.64 l 9.024,-14.416 q 0.272,-0.32 0.48,-0.416 0.208,-0.096 0.608,-0.096 z"
           stroke-width="0"
           stroke-linejoin="miter"
           stroke-miterlimit="2"
           fill="#082252"
           stroke="#082252"
           transform="translate(-29.5325,432.36887)" />
        <path
           id="path210687"
           style="font-style:oblique;font-weight:normal;font-size:32px;line-height:1;font-family:Lato;font-variant-ligatures:none;text-align:center;text-anchor:middle"
           d="m 398.923,-14.224 q -0.352,-0.08 -0.704,-0.096 -0.336,-0.032 -0.672,-0.032 -0.96,0 -1.856,0.32 -0.896,0.304 -1.68,0.864 -0.784,0.56 -1.424,1.344 -0.64,0.768 -1.104,1.696 -0.448,0.928 -0.704,1.984 -0.256,1.04 -0.256,2.144 0,3.856 2.464,3.856 0.784,0 1.536,-0.48 0.752,-0.496 1.424,-1.36 0.688,-0.88 1.264,-2.064 0.576,-1.2 1.024,-2.624 z m -1.088,9.952 q -0.576,1.024 -1.248,1.856 -0.656,0.832 -1.408,1.424 -0.736,0.576 -1.568,0.896 -0.816,0.32 -1.696,0.32 -0.96,0 -1.744,-0.368 -0.784,-0.384 -1.344,-1.104 -0.544,-0.736 -0.848,-1.792 -0.304,-1.072 -0.304,-2.448 0,-1.44 0.352,-2.8 0.368,-1.376 1.024,-2.592 0.672,-1.216 1.6,-2.224 0.928,-1.024 2.064,-1.76 1.152,-0.752 2.464,-1.152 1.312,-0.416 2.752,-0.416 1.04,0 2.016,0.176 0.992,0.16 1.952,0.576 L 399.963,0 h -1.472 q -0.56,0 -0.768,-0.288 -0.192,-0.288 -0.192,-0.704 z"
           stroke-width="0"
           stroke-linejoin="miter"
           stroke-miterlimit="2"
           fill="#082252"
           stroke="#082252"
           transform="translate(-26.5325,432.36887)" />
        <path
           id="path210689"
           style="font-style:oblique;font-weight:normal;font-size:32px;line-height:1;font-family:Lato;font-variant-ligatures:none;text-align:center;text-anchor:middle"
           d="m 409.858,-23.568 -1.696,13.872 h 0.48 q 0.336,0 0.544,-0.08 0.208,-0.096 0.448,-0.368 l 5.376,-5.488 q 0.224,-0.272 0.48,-0.416 0.256,-0.16 0.624,-0.16 h 2.528 l -6.256,6.352 q -0.48,0.56 -0.976,0.848 0.256,0.192 0.432,0.448 0.192,0.24 0.352,0.56 l 4.864,8 h -2.448 q -0.352,0 -0.592,-0.112 -0.224,-0.128 -0.368,-0.448 l -4.128,-6.64 q -0.192,-0.336 -0.4,-0.432 -0.208,-0.112 -0.656,-0.112 h -0.544 L 406.978,0 h -2.816 l 2.896,-23.568 z"
           stroke-width="0"
           stroke-linejoin="miter"
           stroke-miterlimit="2"
           fill="#082252"
           stroke="#082252"
           transform="translate(-23.5325,432.36887)" />
        <path
           id="path210691"
           style="font-style:oblique;font-weight:normal;font-size:32px;line-height:1;font-family:Lato;font-variant-ligatures:none;text-align:center;text-anchor:middle"
           d="m 426.7465,-14.384 q -1.008,0 -1.856,0.416 -0.848,0.416 -1.504,1.152 -0.656,0.72 -1.12,1.712 -0.464,0.976 -0.72,2.112 2.464,-0.304 3.952,-0.688 1.488,-0.4 2.288,-0.848 0.8,-0.464 1.056,-0.992 0.256,-0.528 0.256,-1.104 0,-0.288 -0.128,-0.592 -0.128,-0.32 -0.416,-0.576 -0.272,-0.256 -0.72,-0.416 -0.448,-0.176 -1.088,-0.176 z m 4.512,11.392 q -0.816,0.848 -1.6,1.456 -0.784,0.592 -1.6,0.992 -0.8,0.4 -1.696,0.576 -0.88,0.192 -1.904,0.192 -1.392,0 -2.496,-0.464 -1.104,-0.464 -1.872,-1.312 -0.768,-0.864 -1.184,-2.08 -0.416,-1.216 -0.416,-2.72 0,-1.248 0.256,-2.48 0.272,-1.248 0.768,-2.368 0.512,-1.12 1.232,-2.08 0.736,-0.96 1.664,-1.648 0.944,-0.704 2.064,-1.104 1.136,-0.4 2.432,-0.4 1.232,0 2.128,0.352 0.896,0.352 1.472,0.896 0.576,0.544 0.848,1.2 0.288,0.656 0.288,1.248 0,1.056 -0.432,1.952 -0.432,0.88 -1.584,1.6 -1.152,0.704 -3.168,1.232 -2.016,0.528 -5.184,0.848 0,0.176 -0.016,0.352 0,0.16 0,0.336 0,2.144 0.928,3.28 0.944,1.12 2.832,1.12 0.768,0 1.36,-0.16 0.608,-0.16 1.072,-0.384 0.48,-0.24 0.832,-0.512 0.368,-0.288 0.656,-0.512 0.304,-0.24 0.56,-0.4 0.256,-0.16 0.512,-0.16 0.304,0 0.544,0.272 z"
           stroke-width="0"
           stroke-linejoin="miter"
           stroke-miterlimit="2"
           fill="#082252"
           stroke="#082252"
           transform="translate(-20.5325,432.36887)" />
        <path
           id="path210693"
           style="font-style:oblique;font-weight:normal;font-size:32px;line-height:1;font-family:Lato;font-variant-ligatures:none;text-align:center;text-anchor:middle"
           d="m 444.267,-13.616 q -0.128,0.192 -0.256,0.288 -0.128,0.08 -0.32,0.08 -0.224,0 -0.496,-0.176 -0.256,-0.176 -0.64,-0.384 -0.368,-0.224 -0.912,-0.4 -0.544,-0.192 -1.312,-0.192 -0.72,0 -1.312,0.208 -0.592,0.192 -1.024,0.544 -0.416,0.352 -0.656,0.832 -0.224,0.464 -0.224,0.992 0,0.752 0.496,1.2 0.496,0.448 1.248,0.784 0.752,0.32 1.616,0.624 0.864,0.304 1.616,0.768 0.752,0.464 1.248,1.184 0.496,0.72 0.496,1.872 0,1.12 -0.448,2.144 -0.432,1.024 -1.264,1.808 -0.816,0.768 -1.984,1.232 -1.152,0.464 -2.592,0.464 -1.552,0 -2.752,-0.544 -1.184,-0.56 -1.936,-1.424 l 0.704,-1.088 q 0.144,-0.208 0.304,-0.32 0.176,-0.112 0.448,-0.112 0.256,0 0.512,0.224 0.256,0.224 0.64,0.512 0.384,0.272 0.96,0.496 0.592,0.224 1.488,0.224 0.784,0 1.408,-0.24 0.64,-0.24 1.072,-0.64 0.448,-0.4 0.672,-0.928 0.24,-0.544 0.24,-1.152 0,-0.816 -0.496,-1.296 -0.496,-0.48 -1.248,-0.8 -0.752,-0.32 -1.616,-0.592 -0.864,-0.288 -1.616,-0.72 -0.752,-0.448 -1.248,-1.152 -0.496,-0.704 -0.496,-1.872 0,-1.024 0.4,-1.968 0.416,-0.96 1.184,-1.696 0.768,-0.736 1.856,-1.168 1.104,-0.448 2.48,-0.448 1.456,0 2.56,0.496 1.12,0.48 1.92,1.312 z"
           stroke-width="0"
           stroke-linejoin="miter"
           stroke-miterlimit="2"
           fill="#082252"
           stroke="#082252"
           transform="translate(-17.5325,432.36887)" />
        <path
           id="path210695"
           style="font-style:oblique;font-weight:normal;font-size:32px;line-height:1;font-family:Lato;font-variant-ligatures:none;text-align:center;text-anchor:middle"
           d="m 460.2115,-7.312 q 0.864,0 1.52,-0.368 0.672,-0.384 1.12,-0.992 0.464,-0.624 0.704,-1.392 0.24,-0.768 0.24,-1.552 0,-1.408 -0.72,-2.128 -0.704,-0.72 -1.952,-0.72 -0.864,0 -1.52,0.352 -0.656,0.352 -1.12,0.944 -0.448,0.592 -0.688,1.344 -0.224,0.752 -0.224,1.568 0,1.44 0.688,2.192 0.704,0.752 1.952,0.752 z m 3.216,7.712 q 0,-0.432 -0.08,-0.784 -0.08,-0.368 -0.208,-0.688 -2.112,-0.336 -3.648,-0.24 -1.536,0.08 -2.544,0.464 -0.992,0.384 -1.472,0.992 -0.48,0.608 -0.48,1.312 0,1.152 0.96,1.76 0.976,0.608 2.752,0.608 1.056,0 1.92,-0.288 0.88,-0.272 1.488,-0.736 0.624,-0.464 0.96,-1.088 0.352,-0.624 0.352,-1.312 z m 5.44,-16.016 -0.112,0.944 q -0.08,0.576 -0.64,0.768 l -2.032,0.352 q 0.304,0.832 0.304,1.84 0,0.8 -0.192,1.44 -0.176,0.64 -0.448,1.184 -0.272,0.544 -0.592,1.024 -0.32,0.48 -0.592,0.96 -0.272,0.464 -0.464,0.976 -0.176,0.496 -0.176,1.088 0,0.432 0.144,0.832 0.16,0.384 0.384,0.768 0.24,0.368 0.512,0.752 0.288,0.384 0.512,0.816 0.24,0.432 0.384,0.944 0.16,0.496 0.16,1.104 -0.016,1.136 -0.544,2.144 -0.528,1.024 -1.504,1.808 -0.976,0.784 -2.368,1.232 -1.392,0.464 -3.136,0.464 -1.392,0 -2.544,-0.288 -1.136,-0.288 -1.952,-0.816 -0.8,-0.528 -1.232,-1.28 -0.448,-0.736 -0.448,-1.632 0,-1.024 0.432,-1.808 0.432,-0.784 1.168,-1.344 0.736,-0.576 1.712,-0.944 0.976,-0.368 2.064,-0.544 1.104,-0.176 2.256,-0.16 1.152,0 2.256,0.16 -0.144,-0.304 -0.24,-0.624 -0.08,-0.336 -0.08,-0.72 0,-0.496 0.144,-1.024 0.16,-0.528 0.512,-1.2 -0.608,0.416 -1.36,0.656 -0.752,0.224 -1.712,0.224 -0.928,0 -1.744,-0.304 -0.8,-0.304 -1.408,-0.896 -0.608,-0.592 -0.96,-1.472 -0.352,-0.896 -0.352,-2.08 0,-1.152 0.416,-2.256 0.432,-1.12 1.248,-1.984 0.816,-0.88 2.016,-1.408 1.2,-0.528 2.768,-0.528 0.864,0 1.648,0.208 0.784,0.208 1.408,0.624 z"
           stroke-width="0"
           stroke-linejoin="miter"
           stroke-miterlimit="2"
           fill="#082252"
           stroke="#082252"
           transform="translate(-14.5325,432.36887)" />
        <path
           id="path210697"
           style="font-style:oblique;font-weight:normal;font-size:32px;line-height:1;font-family:Lato;font-variant-ligatures:none;text-align:center;text-anchor:middle"
           d="m 473.6955,-11.696 q 0.64,-1.36 1.376,-2.352 0.752,-1.008 1.568,-1.568 0.816,-0.576 1.68,-0.688 0.864,-0.128 1.76,0.256 l -0.512,2.736 q -2.08,-0.832 -3.68,0.608 -1.584,1.44 -2.576,5.2 L 472.4155,0 h -2.784 l 1.952,-16.224 h 1.408 q 0.976,0 0.976,0.96 z"
           stroke-width="0"
           stroke-linejoin="miter"
           stroke-miterlimit="2"
           fill="#082252"
           stroke="#082252"
           transform="translate(-11.5325,432.36887)" />
        <path
           id="path210699"
           style="font-style:oblique;font-weight:normal;font-size:32px;line-height:1;font-family:Lato;font-variant-ligatures:none;text-align:center;text-anchor:middle"
           d="m 486.3105,-2 q 1.168,0 2.112,-0.64 0.96,-0.64 1.632,-1.696 0.688,-1.072 1.056,-2.464 0.368,-1.392 0.368,-2.912 0,-2.24 -0.896,-3.36 -0.88,-1.136 -2.544,-1.136 -1.184,0 -2.144,0.64 -0.944,0.624 -1.616,1.68 -0.672,1.056 -1.04,2.448 -0.368,1.392 -0.368,2.912 0,2.24 0.88,3.392 0.88,1.136 2.56,1.136 z m -0.272,2.224 q -1.328,0 -2.432,-0.448 -1.104,-0.464 -1.904,-1.328 -0.8,-0.864 -1.248,-2.112 -0.448,-1.248 -0.448,-2.848 0,-2.048 0.64,-3.856 0.64,-1.808 1.76,-3.152 1.12,-1.36 2.624,-2.144 1.52,-0.784 3.264,-0.784 1.328,0 2.432,0.464 1.104,0.448 1.904,1.312 0.8,0.864 1.248,2.112 0.448,1.248 0.448,2.832 0,2.032 -0.64,3.84 -0.64,1.808 -1.76,3.168 -1.104,1.36 -2.624,2.16 -1.52,0.784 -3.264,0.784 z"
           stroke-width="0"
           stroke-linejoin="miter"
           stroke-miterlimit="2"
           fill="#082252"
           stroke="#082252"
           transform="translate(-8.5325,432.36887)" />
        <path
           id="path210701"
           style="font-style:oblique;font-weight:normal;font-size:32px;line-height:1;font-family:Lato;font-variant-ligatures:none;text-align:center;text-anchor:middle"
           d="m 508.7755,-2.912 q -0.832,0.912 -1.584,1.52 -0.752,0.608 -1.504,0.976 -0.752,0.352 -1.568,0.496 -0.8,0.144 -1.728,0.144 -1.408,0 -2.496,-0.48 -1.072,-0.48 -1.808,-1.344 -0.72,-0.88 -1.104,-2.096 -0.368,-1.232 -0.368,-2.704 0,-1.968 0.608,-3.776 0.624,-1.808 1.728,-3.2 1.104,-1.392 2.624,-2.224 1.536,-0.832 3.344,-0.832 1.616,0 2.704,0.576 1.088,0.56 1.904,1.648 l -0.896,1.072 q -0.112,0.128 -0.256,0.208 -0.128,0.08 -0.304,0.08 -0.224,0 -0.448,-0.192 -0.208,-0.208 -0.56,-0.448 -0.352,-0.256 -0.88,-0.448 -0.512,-0.208 -1.328,-0.208 -1.104,0 -2.08,0.608 -0.976,0.592 -1.712,1.632 -0.736,1.04 -1.168,2.464 -0.416,1.424 -0.416,3.056 0,0.992 0.224,1.808 0.224,0.8 0.672,1.376 0.448,0.56 1.088,0.88 0.656,0.304 1.52,0.304 1.072,0 1.792,-0.32 0.736,-0.32 1.232,-0.688 0.496,-0.384 0.832,-0.704 0.352,-0.32 0.688,-0.32 0.304,0 0.544,0.272 z"
           stroke-width="0"
           stroke-linejoin="miter"
           stroke-miterlimit="2"
           fill="#082252"
           stroke="#082252"
           transform="translate(-5.5325,432.36887)" />
        <path
           id="path210703"
           style="font-style:oblique;font-weight:normal;font-size:32px;line-height:1;font-family:Lato;font-variant-ligatures:none;text-align:center;text-anchor:middle"
           d="m 519.1215,-14.384 q -1.008,0 -1.856,0.416 -0.848,0.416 -1.504,1.152 -0.656,0.72 -1.12,1.712 -0.464,0.976 -0.72,2.112 2.464,-0.304 3.952,-0.688 1.488,-0.4 2.288,-0.848 0.8,-0.464 1.056,-0.992 0.256,-0.528 0.256,-1.104 0,-0.288 -0.128,-0.592 -0.128,-0.32 -0.416,-0.576 -0.272,-0.256 -0.72,-0.416 -0.448,-0.176 -1.088,-0.176 z m 4.512,11.392 q -0.816,0.848 -1.6,1.456 -0.784,0.592 -1.6,0.992 -0.8,0.4 -1.696,0.576 -0.88,0.192 -1.904,0.192 -1.392,0 -2.496,-0.464 -1.104,-0.464 -1.872,-1.312 -0.768,-0.864 -1.184,-2.08 -0.416,-1.216 -0.416,-2.72 0,-1.248 0.256,-2.48 0.272,-1.248 0.768,-2.368 0.512,-1.12 1.232,-2.08 0.736,-0.96 1.664,-1.648 0.944,-0.704 2.064,-1.104 1.136,-0.4 2.432,-0.4 1.232,0 2.128,0.352 0.896,0.352 1.472,0.896 0.576,0.544 0.848,1.2 0.288,0.656 0.288,1.248 0,1.056 -0.432,1.952 -0.432,0.88 -1.584,1.6 -1.152,0.704 -3.168,1.232 -2.016,0.528 -5.184,0.848 0,0.176 -0.016,0.352 0,0.16 0,0.336 0,2.144 0.928,3.28 0.944,1.12 2.832,1.12 0.768,0 1.36,-0.16 0.608,-0.16 1.072,-0.384 0.48,-0.24 0.832,-0.512 0.368,-0.288 0.656,-0.512 0.304,-0.24 0.56,-0.4 0.256,-0.16 0.512,-0.16 0.304,0 0.544,0.272 z"
           stroke-width="0"
           stroke-linejoin="miter"
           stroke-miterlimit="2"
           fill="#082252"
           stroke="#082252"
           transform="translate(-2.5325,432.36887)" />
        <path
           id="path210705"
           style="font-style:oblique;font-weight:normal;font-size:32px;line-height:1;font-family:Lato;font-variant-ligatures:none;text-align:center;text-anchor:middle"
           d="m 530.258,-11.696 q 0.64,-1.36 1.376,-2.352 0.752,-1.008 1.568,-1.568 0.816,-0.576 1.68,-0.688 0.864,-0.128 1.76,0.256 l -0.512,2.736 q -2.08,-0.832 -3.68,0.608 -1.584,1.44 -2.576,5.2 L 528.978,0 h -2.784 l 1.952,-16.224 h 1.408 q 0.976,0 0.976,0.96 z"
           stroke-width="0"
           stroke-linejoin="miter"
           stroke-miterlimit="2"
           fill="#082252"
           stroke="#082252"
           transform="translate(0.4675,432.36887)" />
        <path
           id="path210707"
           style="font-style:oblique;font-weight:normal;font-size:32px;line-height:1;font-family:Lato;font-variant-ligatures:none;text-align:center;text-anchor:middle"
           d="m 552.0595,-16.208 -10.944,21.04 q -0.176,0.336 -0.416,0.496 -0.224,0.16 -0.576,0.16 h -2.096 l 3.52,-6.448 -4.208,-15.248 h 2.352 q 0.352,0 0.512,0.176 0.16,0.16 0.24,0.416 l 2.608,10.208 q 0.08,0.336 0.128,0.672 0.048,0.336 0.08,0.672 0.144,-0.336 0.288,-0.672 0.144,-0.352 0.304,-0.688 l 5.12,-10.224 q 0.128,-0.256 0.352,-0.4 0.24,-0.16 0.48,-0.16 z"
           stroke-width="0"
           stroke-linejoin="miter"
           stroke-miterlimit="2"
           fill="#082252"
           stroke="#082252"
           transform="translate(3.4675,432.36887)" />
        <path
           id="path210709"
           style="font-style:oblique;font-weight:normal;font-size:32px;line-height:1;font-family:Lato;font-variant-ligatures:none;text-align:center;text-anchor:middle"
           d="m 559.399,0 2.864,-23.568 h 2.8 L 562.199,0 Z"
           stroke-width="0"
           stroke-linejoin="miter"
           stroke-miterlimit="2"
           fill="#082252"
           stroke="#082252"
           transform="translate(6.4675,432.36887)" />
        <path
           id="path210711"
           style="font-style:oblique;font-weight:normal;font-size:32px;line-height:1;font-family:Lato;font-variant-ligatures:none;text-align:center;text-anchor:middle"
           d="M 571.4185,-16.208 569.4665,0 h -2.8 l 1.952,-16.208 z m 1.088,-5.088 q 0,0.416 -0.176,0.784 -0.16,0.352 -0.448,0.64 -0.272,0.272 -0.64,0.432 -0.352,0.16 -0.736,0.16 -0.368,0 -0.72,-0.16 -0.352,-0.16 -0.624,-0.432 -0.256,-0.288 -0.416,-0.64 -0.16,-0.368 -0.16,-0.784 0,-0.416 0.16,-0.784 0.16,-0.368 0.432,-0.64 0.272,-0.288 0.624,-0.448 0.352,-0.176 0.72,-0.176 0.384,0 0.736,0.16 0.368,0.16 0.64,0.448 0.272,0.272 0.432,0.656 0.176,0.368 0.176,0.784 z"
           stroke-width="0"
           stroke-linejoin="miter"
           stroke-miterlimit="2"
           fill="#082252"
           stroke="#082252"
           transform="translate(9.4675,432.36887)" />
        <path
           id="path210713"
           style="font-style:oblique;font-weight:normal;font-size:32px;line-height:1;font-family:Lato;font-variant-ligatures:none;text-align:center;text-anchor:middle"
           d="m 584.3295,-13.616 q -0.128,0.192 -0.256,0.288 -0.128,0.08 -0.32,0.08 -0.224,0 -0.496,-0.176 -0.256,-0.176 -0.64,-0.384 -0.368,-0.224 -0.912,-0.4 -0.544,-0.192 -1.312,-0.192 -0.72,0 -1.312,0.208 -0.592,0.192 -1.024,0.544 -0.416,0.352 -0.656,0.832 -0.224,0.464 -0.224,0.992 0,0.752 0.496,1.2 0.496,0.448 1.248,0.784 0.752,0.32 1.616,0.624 0.864,0.304 1.616,0.768 0.752,0.464 1.248,1.184 0.496,0.72 0.496,1.872 0,1.12 -0.448,2.144 -0.432,1.024 -1.264,1.808 -0.816,0.768 -1.984,1.232 -1.152,0.464 -2.592,0.464 -1.552,0 -2.752,-0.544 -1.184,-0.56 -1.936,-1.424 l 0.704,-1.088 q 0.144,-0.208 0.304,-0.32 0.176,-0.112 0.448,-0.112 0.256,0 0.512,0.224 0.256,0.224 0.64,0.512 0.384,0.272 0.96,0.496 0.592,0.224 1.488,0.224 0.784,0 1.408,-0.24 0.64,-0.24 1.072,-0.64 0.448,-0.4 0.672,-0.928 0.24,-0.544 0.24,-1.152 0,-0.816 -0.496,-1.296 -0.496,-0.48 -1.248,-0.8 -0.752,-0.32 -1.616,-0.592 -0.864,-0.288 -1.616,-0.72 -0.752,-0.448 -1.248,-1.152 -0.496,-0.704 -0.496,-1.872 0,-1.024 0.4,-1.968 0.416,-0.96 1.184,-1.696 0.768,-0.736 1.856,-1.168 1.104,-0.448 2.48,-0.448 1.456,0 2.56,0.496 1.12,0.48 1.92,1.312 z"
           stroke-width="0"
           stroke-linejoin="miter"
           stroke-miterlimit="2"
           fill="#082252"
           stroke="#082252"
           transform="translate(12.4675,432.36887)" />
        <path
           id="path210715"
           style="font-style:oblique;font-weight:normal;font-size:32px;line-height:1;font-family:Lato;font-variant-ligatures:none;text-align:center;text-anchor:middle"
           d="m 587.974,-3.056 q 0,-0.096 0,-0.24 0,-0.16 0.016,-0.448 0.032,-0.288 0.08,-0.752 0.064,-0.464 0.16,-1.216 l 0.992,-8.112 h -1.808 q -0.224,0 -0.368,-0.144 -0.128,-0.16 -0.096,-0.48 l 0.128,-1.136 2.496,-0.336 1.216,-5.008 q 0.08,-0.24 0.24,-0.384 0.176,-0.16 0.432,-0.16 h 1.488 l -0.688,5.584 h 4.256 l -0.24,2.064 h -4.272 l -0.976,7.968 q -0.08,0.656 -0.128,1.056 -0.048,0.4 -0.08,0.64 -0.016,0.24 -0.032,0.336 0,0.096 0,0.144 0,0.816 0.384,1.216 0.384,0.384 1.024,0.384 0.432,0 0.736,-0.112 0.32,-0.128 0.56,-0.272 0.24,-0.144 0.4,-0.256 0.16,-0.128 0.272,-0.128 0.144,0 0.208,0.064 0.08,0.064 0.144,0.208 l 0.608,1.36 q -0.784,0.688 -1.792,1.088 -0.992,0.384 -2,0.384 -1.552,0 -2.448,-0.848 -0.88,-0.848 -0.912,-2.464 z"
           stroke-width="0"
           stroke-linejoin="miter"
           stroke-miterlimit="2"
           fill="#082252"
           stroke="#082252"
           transform="translate(15.4675,432.36887)" />
        <path
           id="path210717"
           style="font-style:oblique;font-weight:normal;font-size:32px;line-height:1;font-family:Lato;font-variant-ligatures:none;text-align:center;text-anchor:middle"
           d="m 613.809,-14.384 q -1.008,0 -1.856,0.416 -0.848,0.416 -1.504,1.152 -0.656,0.72 -1.12,1.712 -0.464,0.976 -0.72,2.112 2.464,-0.304 3.952,-0.688 1.488,-0.4 2.288,-0.848 0.8,-0.464 1.056,-0.992 0.256,-0.528 0.256,-1.104 0,-0.288 -0.128,-0.592 -0.128,-0.32 -0.416,-0.576 -0.272,-0.256 -0.72,-0.416 -0.448,-0.176 -1.088,-0.176 z m 4.512,11.392 q -0.816,0.848 -1.6,1.456 -0.784,0.592 -1.6,0.992 -0.8,0.4 -1.696,0.576 -0.88,0.192 -1.904,0.192 -1.392,0 -2.496,-0.464 -1.104,-0.464 -1.872,-1.312 -0.768,-0.864 -1.184,-2.08 -0.416,-1.216 -0.416,-2.72 0,-1.248 0.256,-2.48 0.272,-1.248 0.768,-2.368 0.512,-1.12 1.232,-2.08 0.736,-0.96 1.664,-1.648 0.944,-0.704 2.064,-1.104 1.136,-0.4 2.432,-0.4 1.232,0 2.128,0.352 0.896,0.352 1.472,0.896 0.576,0.544 0.848,1.2 0.288,0.656 0.288,1.248 0,1.056 -0.432,1.952 -0.432,0.88 -1.584,1.6 -1.152,0.704 -3.168,1.232 -2.016,0.528 -5.184,0.848 0,0.176 -0.016,0.352 0,0.16 0,0.336 0,2.144 0.928,3.28 0.944,1.12 2.832,1.12 0.768,0 1.36,-0.16 0.608,-0.16 1.072,-0.384 0.48,-0.24 0.832,-0.512 0.368,-0.288 0.656,-0.512 0.304,-0.24 0.56,-0.4 0.256,-0.16 0.512,-0.16 0.304,0 0.544,0.272 z"
           stroke-width="0"
           stroke-linejoin="miter"
           stroke-miterlimit="2"
           fill="#082252"
           stroke="#082252"
           transform="translate(18.4675,432.36887)" />
        <path
           id="path210719"
           style="font-style:oblique;font-weight:normal;font-size:32px;line-height:1;font-family:Lato;font-variant-ligatures:none;text-align:center;text-anchor:middle"
           d="m 631.9855,-14.224 q -0.352,-0.08 -0.704,-0.096 -0.336,-0.032 -0.672,-0.032 -0.96,0 -1.856,0.32 -0.896,0.304 -1.68,0.864 -0.784,0.56 -1.424,1.344 -0.64,0.768 -1.104,1.696 -0.448,0.928 -0.704,1.984 -0.256,1.04 -0.256,2.144 0,3.856 2.464,3.856 0.784,0 1.536,-0.48 0.752,-0.496 1.424,-1.36 0.688,-0.88 1.264,-2.064 0.576,-1.2 1.024,-2.624 z m -1.088,9.952 q -0.576,1.024 -1.248,1.856 -0.656,0.832 -1.408,1.424 -0.736,0.576 -1.568,0.896 -0.816,0.32 -1.696,0.32 -0.96,0 -1.744,-0.368 -0.784,-0.384 -1.344,-1.104 -0.544,-0.736 -0.848,-1.792 -0.304,-1.072 -0.304,-2.448 0,-1.44 0.352,-2.8 0.368,-1.376 1.024,-2.592 0.672,-1.216 1.6,-2.224 0.928,-1.024 2.064,-1.76 1.152,-0.752 2.464,-1.152 1.312,-0.416 2.752,-0.416 1.04,0 2.016,0.176 0.992,0.16 1.952,0.576 L 633.0255,0 h -1.472 q -0.56,0 -0.768,-0.288 -0.192,-0.288 -0.192,-0.704 z"
           stroke-width="0"
           stroke-linejoin="miter"
           stroke-miterlimit="2"
           fill="#082252"
           stroke="#082252"
           transform="translate(21.4675,432.36887)" />
        <path
           id="path210721"
           style="font-style:oblique;font-weight:normal;font-size:32px;line-height:1;font-family:Lato;font-variant-ligatures:none;text-align:center;text-anchor:middle"
           d="m 647.7045,-13.616 q -0.128,0.192 -0.256,0.288 -0.128,0.08 -0.32,0.08 -0.224,0 -0.496,-0.176 -0.256,-0.176 -0.64,-0.384 -0.368,-0.224 -0.912,-0.4 -0.544,-0.192 -1.312,-0.192 -0.72,0 -1.312,0.208 -0.592,0.192 -1.024,0.544 -0.416,0.352 -0.656,0.832 -0.224,0.464 -0.224,0.992 0,0.752 0.496,1.2 0.496,0.448 1.248,0.784 0.752,0.32 1.616,0.624 0.864,0.304 1.616,0.768 0.752,0.464 1.248,1.184 0.496,0.72 0.496,1.872 0,1.12 -0.448,2.144 -0.432,1.024 -1.264,1.808 -0.816,0.768 -1.984,1.232 -1.152,0.464 -2.592,0.464 -1.552,0 -2.752,-0.544 -1.184,-0.56 -1.936,-1.424 l 0.704,-1.088 q 0.144,-0.208 0.304,-0.32 0.176,-0.112 0.448,-0.112 0.256,0 0.512,0.224 0.256,0.224 0.64,0.512 0.384,0.272 0.96,0.496 0.592,0.224 1.488,0.224 0.784,0 1.408,-0.24 0.64,-0.24 1.072,-0.64 0.448,-0.4 0.672,-0.928 0.24,-0.544 0.24,-1.152 0,-0.816 -0.496,-1.296 -0.496,-0.48 -1.248,-0.8 -0.752,-0.32 -1.616,-0.592 -0.864,-0.288 -1.616,-0.72 -0.752,-0.448 -1.248,-1.152 -0.496,-0.704 -0.496,-1.872 0,-1.024 0.4,-1.968 0.416,-0.96 1.184,-1.696 0.768,-0.736 1.856,-1.168 1.104,-0.448 2.48,-0.448 1.456,0 2.56,0.496 1.12,0.48 1.92,1.312 z"
           stroke-width="0"
           stroke-linejoin="miter"
           stroke-miterlimit="2"
           fill="#082252"
           stroke="#082252"
           transform="translate(24.4675,432.36887)" />
        <path
           id="path210723"
           style="font-style:oblique;font-weight:normal;font-size:32px;line-height:1;font-family:Lato;font-variant-ligatures:none;text-align:center;text-anchor:middle"
           d="m 664.747,-16.208 -10.944,21.04 q -0.176,0.336 -0.416,0.496 -0.224,0.16 -0.576,0.16 h -2.096 l 3.52,-6.448 -4.208,-15.248 h 2.352 q 0.352,0 0.512,0.176 0.16,0.16 0.24,0.416 l 2.608,10.208 q 0.08,0.336 0.128,0.672 0.048,0.336 0.08,0.672 0.144,-0.336 0.288,-0.672 0.144,-0.352 0.304,-0.688 l 5.12,-10.224 q 0.128,-0.256 0.352,-0.4 0.24,-0.16 0.48,-0.16 z"
           stroke-width="0"
           stroke-linejoin="miter"
           stroke-miterlimit="2"
           fill="#082252"
           stroke="#082252"
           transform="translate(27.4675,432.36887)" />
      </g>
      <g
         id="title"
         style="font-style:normal;font-weight:700;font-size:72px;line-height:1;font-family:'Roboto Condensed';font-variant-ligatures:none;text-align:center;text-anchor:middle"
         transform="matrix(0.26458333,0,0,0.26458333,-22.877751,31.543223)">
        <path
           id="F"
           style="font-style:normal;font-weight:700;font-size:72px;line-height:1;font-family:'Roboto Condensed';font-variant-ligatures:none;text-align:center;text-anchor:middle"
           d="m 333.82812,-20.882812 h -16.0664 V 0 h -10.33594 v -51.1875 h 28.33594 v 8.613281 h -18 v 13.113282 h 16.0664 z"
           stroke-width="0"
           stroke-linejoin="miter"
           stroke-miterlimit="2"
           fill="#082252"
           stroke="#082252"
           transform="translate(-5.3942027,381.69775)" />
        <path
           id="O"
           style="font-style:normal;font-weight:700;font-size:72px;line-height:1;font-family:'Roboto Condensed';font-variant-ligatures:none;text-align:center;text-anchor:middle"
           d="m 377.77344,-20.988281 q 0,10.300781 -4.88672,15.9960935 -4.85156,5.6953125 -13.5,5.6953125 -8.61328,0 -13.53516,-5.625 -4.92187,-5.660156 -4.99219,-15.820312 v -8.753907 q 0,-10.546875 4.88672,-16.453125 4.88672,-5.941406 13.57032,-5.941406 8.54296,0 13.46484,5.835938 4.92187,5.800781 4.99219,16.3125 z m -10.3711,-8.578125 q 0,-6.925781 -1.96875,-10.300781 -1.96875,-3.375 -6.11718,-3.375 -4.11329,0 -6.08204,3.269531 -1.96875,3.234375 -2.03906,9.878906 v 9.105469 q 0,6.714843 2.00391,9.914062 2.0039,3.1640628 6.1875,3.1640628 4.04297,0 6.01172,-3.0937498 1.96875,-3.128907 2.0039,-9.667969 z"
           stroke-width="0"
           stroke-linejoin="miter"
           stroke-miterlimit="2"
           fill="#082252"
           stroke="#082252"
           transform="translate(-5.3942027,381.69775)" />
        <path
           id="O2"
           style="font-style:normal;font-weight:700;font-size:72px;line-height:1;font-family:'Roboto Condensed';font-variant-ligatures:none;text-align:center;text-anchor:middle"
           d="m 421.22656,-20.988281 q 0,10.300781 -4.88672,15.9960935 -4.85156,5.6953125 -13.5,5.6953125 -8.61328,0 -13.53515,-5.625 -4.92188,-5.660156 -4.99219,-15.820312 v -8.753907 q 0,-10.546875 4.88672,-16.453125 4.88672,-5.941406 13.57031,-5.941406 8.54297,0 13.46484,5.835938 4.92188,5.800781 4.99219,16.3125 z m -10.37109,-8.578125 q 0,-6.925781 -1.96875,-10.300781 -1.96875,-3.375 -6.11719,-3.375 -4.11328,0 -6.08203,3.269531 -1.96875,3.234375 -2.03906,9.878906 v 9.105469 q 0,6.714843 2.0039,9.914062 2.00391,3.1640628 6.1875,3.1640628 4.04297,0 6.01172,-3.0937498 1.96875,-3.128907 2.00391,-9.667969 z"
           stroke-width="0"
           stroke-linejoin="miter"
           stroke-miterlimit="2"
           fill="#082252"
           stroke="#082252"
           transform="translate(-5.3942027,381.69775)" />
        <path
           id="D"
           style="font-style:normal;font-weight:700;font-size:72px;line-height:1;font-family:'Roboto Condensed';font-variant-ligatures:none;text-align:center;text-anchor:middle"
           d="m 428.64453,0 v -51.1875 h 13.53516 q 8.96484,0 14.27343,5.695313 5.34375,5.695312 5.44922,15.609375 v 8.296875 q 0,10.089843 -5.34375,15.8554683 Q 451.25,0 441.89844,0 Z m 10.33594,-42.574219 v 33.996094 h 3.09375 q 5.16797,0 7.27734,-2.707031 2.10938,-2.742188 2.21485,-9.421875 v -8.894531 q 0,-7.171875 -2.00391,-9.984375 -2.00391,-2.847657 -6.82031,-2.988282 z"
           stroke-width="0"
           stroke-linejoin="miter"
           stroke-miterlimit="2"
           fill="#082252"
           stroke="#082252"
           transform="translate(-5.3942027,381.69775)" />
        <path
           id="W"
           style="font-style:normal;font-weight:700;font-size:72px;line-height:1;font-family:'Roboto Condensed';font-variant-ligatures:none;text-align:center;text-anchor:middle"
           d="M 502.54297,-19.019531 507.39453,-51.1875 H 517.625 L 508.51953,0 H 498.14844 L 492.17187,-30.164062 486.26562,0 h -10.40625 l -9.14062,-51.1875 h 10.30078 l 4.81641,32.132813 6.01172,-32.132813 h 8.68359 z"
           stroke-width="0"
           stroke-linejoin="miter"
           stroke-miterlimit="2"
           fill="#082252"
           stroke="#082252"
           transform="translate(-5.3942027,381.69775)" />
        <path
           id="N"
           style="font-style:normal;font-weight:700;font-size:72px;line-height:1;font-family:'Roboto Condensed';font-variant-ligatures:none;text-align:center;text-anchor:middle"
           d="M 600.55859,0 H 590.22266 L 575.10547,-33.574219 V 0 h -10.33594 v -51.1875 h 10.33594 l 15.15234,33.609375 V -51.1875 h 10.30078 z"
           stroke-width="0"
           stroke-linejoin="miter"
           stroke-miterlimit="2"
           fill="#082252"
           stroke="#082252"
           transform="translate(2.7926427,381.69775)" />
        <path
           id="D2"
           style="font-style:normal;font-weight:700;font-size:72px;line-height:1;font-family:'Roboto Condensed';font-variant-ligatures:none;text-align:center;text-anchor:middle"
           d="m 608.92578,0 v -51.1875 h 13.53516 q 8.96484,0 14.27343,5.695313 5.34375,5.695312 5.44922,15.609375 v 8.296875 q 0,10.089843 -5.34375,15.8554683 Q 631.53125,0 622.17969,0 Z m 10.33594,-42.574219 v 33.996094 h 3.09375 q 5.16797,0 7.27734,-2.707031 2.10938,-2.742188 2.21485,-9.421875 v -8.894531 q 0,-7.171875 -2.00391,-9.984375 -2.00391,-2.847657 -6.82031,-2.988282 z"
           stroke-width="0"
           stroke-linejoin="miter"
           stroke-miterlimit="2"
           fill="#082252"
           stroke="#082252"
           transform="translate(2.7926427,381.69775)" />
        <path
           id="E"
           style="font-style:normal;font-weight:700;font-size:72px;line-height:1;font-family:'Roboto Condensed';font-variant-ligatures:none;text-align:center;text-anchor:middle"
           d="m 676.00391,-22.148437 h -16.10157 v 13.570312 h 19.05469 V 0 h -29.39062 v -51.1875 h 29.32031 v 8.613281 h -18.98438 v 12.09375 h 16.10157 z"
           stroke-width="0"
           stroke-linejoin="miter"
           stroke-miterlimit="2"
           fill="#082252"
           stroke="#082252"
           transform="translate(2.7926427,381.69775)" />
        <path
           id="R"
           style="font-style:normal;font-weight:700;font-size:72px;line-height:1;font-family:'Roboto Condensed';font-variant-ligatures:none;text-align:center;text-anchor:middle"
           d="m 700.36719,-18.703125 h -5.13282 V 0 h -10.33593 v -51.1875 h 16.48828 q 7.76953,0 11.98828,4.042969 4.25391,4.007812 4.25391,11.425781 0,10.195313 -7.41797,14.273438 l 8.96484,20.9531245 V 0 h -11.10937 z m -5.13282,-8.613281 h 5.8711 q 3.09375,0 4.64062,-2.039063 1.54688,-2.074218 1.54688,-5.519531 0,-7.699219 -6.01172,-7.699219 h -6.04688 z"
           stroke-width="0"
           stroke-linejoin="miter"
           stroke-miterlimit="2"
           fill="#082252"
           stroke="#082252"
           transform="translate(2.7926427,381.69775)" />
      </g>
      <path
         style="fill:#082252;fill-opacity:1;stroke-width:0.0765162"
         d="m 113.15197,132.58106 c -0.0283,-0.0283 -0.0515,-1.40178 -0.0515,-3.05217 0,-2.98642 -7.9e-4,-3.00091 -0.16109,-3.04284 -0.32802,-0.0858 -0.10255,-0.24314 0.3817,-0.26642 l 0.47628,-0.0229 -0.0487,-0.32451 c -0.0988,-0.65895 0.2025,-1.69346 0.67681,-2.32375 0.26586,-0.35329 0.27154,-0.35674 0.42596,-0.25894 0.0847,0.0536 0.0587,0.12613 -0.13021,0.36228 -0.50251,0.62829 -0.82403,1.75214 -0.6732,2.3531 l 0.05,0.19933 h 2.55799 2.55798 l 0.0911,-0.46308 c 0.0501,-0.25469 0.22131,-0.71768 0.38045,-1.02886 l 0.28934,-0.56578 -0.29091,-0.40582 c -0.53019,-0.73961 -1.36869,-1.19001 -2.35585,-1.26543 -0.6316,-0.0483 -0.87526,-0.20145 -0.44793,-0.28162 0.40571,-0.0761 1.25674,0.0871 1.78024,0.3414 0.51397,0.24967 1.15169,0.77944 1.32252,1.09862 0.14924,0.27886 0.23038,0.12217 0.23397,-0.45181 0.002,-0.25251 0.0505,-0.90672 0.10864,-1.45381 0.0669,-0.62899 0.0792,-1.02709 0.0335,-1.08279 -0.0398,-0.0484 -0.0623,-0.39276 -0.0501,-0.76516 l 0.0222,-0.67708 h 1.79813 1.79813 l 0.0222,0.67708 c 0.0122,0.3724 -0.009,0.71672 -0.0477,0.76516 -0.0426,0.0537 -0.0323,0.35787 0.0266,0.77954 0.0531,0.38031 0.12193,1.09841 0.15301,1.59579 0.0541,0.86545 0.0692,0.92609 0.35243,1.41073 0.30223,0.51719 0.4767,0.97814 0.56106,1.48225 l 0.0474,0.2832 0.43116,0.0229 c 0.44325,0.0235 0.64793,0.18497 0.33741,0.26617 -0.15879,0.0415 -0.16041,0.069 -0.18023,3.07472 l -0.02,3.03282 -6.20374,0.0196 c -3.41205,0.0108 -6.22689,-0.004 -6.25519,-0.0319 z m 1.47886,-0.86763 v -0.61213 h -0.61213 -0.61213 v 0.61213 0.61213 h 0.61213 0.61213 z m 1.53032,0 v -0.61213 h -0.61213 -0.61212 v 0.61213 0.61213 h 0.61212 0.61213 z m 1.53033,0 v -0.61213 h -0.61213 -0.61213 v 0.61213 0.61213 h 0.61213 0.61213 z m 1.53032,0 v -0.61213 h -0.61213 -0.61213 v 0.61213 0.61213 h 0.61213 0.61213 z m 1.53032,0 V 131.1013 H 120.14 119.52787 v 0.61213 0.61213 h 0.61213 0.61212 z m 1.53033,0 v -0.61213 h -0.61213 -0.61213 v 0.61213 0.61213 h 0.61213 0.61213 z m 1.53032,0 v -0.61213 h -0.61213 -0.61213 v 0.61213 0.61213 h 0.61213 0.61213 z m 1.53032,0 v -0.61213 h -0.61213 -0.61213 v 0.61213 0.61213 h 0.61213 0.61213 z m -10.71226,-1.53032 v -0.61213 h -0.61213 -0.61213 v 0.61213 0.61213 h 0.61213 0.61213 z m 1.53032,0 v -0.61213 h -0.61213 -0.61212 v 0.61213 0.61213 h 0.61212 0.61213 z m 1.53033,0 v -0.61213 h -0.61213 -0.61213 v 0.61213 0.61213 h 0.61213 0.61213 z m 1.53032,0 v -0.61213 h -0.61213 -0.61213 v 0.61213 0.61213 h 0.61213 0.61213 z m 1.53032,0 v -0.61213 H 120.14 119.52787 v 0.61213 0.61213 h 0.61213 0.61212 z m 1.53033,0 v -0.61213 h -0.61213 -0.61213 v 0.61213 0.61213 h 0.61213 0.61213 z m 1.53032,0 v -0.61213 h -0.61213 -0.61213 v 0.61213 0.61213 h 0.61213 0.61213 z m 1.53032,0 v -0.61213 h -0.61213 -0.61213 v 0.61213 0.61213 h 0.61213 0.61213 z m -10.71226,-1.53033 v -0.61213 h -0.61213 -0.61213 v 0.61213 0.61213 h 0.61213 0.61213 z m 1.53032,0 v -0.61213 h -0.61213 -0.61212 v 0.61213 0.61213 h 0.61212 0.61213 z m 1.53033,0 v -0.61213 h -0.61213 -0.61213 v 0.61213 0.61213 h 0.61213 0.61213 z m 1.53032,0 v -0.61213 h -0.61213 -0.61213 v 0.61213 0.61213 h 0.61213 0.61213 z m 1.53032,0 v -0.61213 H 120.14 119.52787 v 0.61213 0.61213 h 0.61213 0.61212 z m 1.53033,0 v -0.61213 h -0.61213 -0.61213 v 0.61213 0.61213 h 0.61213 0.61213 z m 1.53032,0 v -0.61213 h -0.61213 -0.61213 v 0.61213 0.61213 h 0.61213 0.61213 z m 1.53032,0 v -0.61213 h -0.61213 -0.61213 v 0.61213 0.61213 h 0.61213 0.61213 z m -10.71226,-1.53032 v -0.61213 h -0.61213 -0.61213 v 0.61213 0.61213 h 0.61213 0.61213 z m 1.53032,0 v -0.61213 h -0.61213 -0.61212 v 0.61213 0.61213 h 0.61212 0.61213 z m 1.53033,0 v -0.61213 h -0.61213 -0.61213 v 0.61213 0.61213 h 0.61213 0.61213 z m 1.53032,0 v -0.61213 h -0.61213 -0.61213 v 0.61213 0.61213 h 0.61213 0.61213 z m 1.53032,0 v -0.61213 H 120.14 119.52787 v 0.61213 0.61213 h 0.61213 0.61212 z m 1.53033,0 v -0.61213 h -0.61213 -0.61213 v 0.61213 0.61213 h 0.61213 0.61213 z m 1.53032,0 v -0.61213 h -0.61213 -0.61213 v 0.61213 0.61213 h 0.61213 0.61213 z m 1.53032,0 v -0.61213 h -0.61213 -0.61213 v 0.61213 0.61213 h 0.61213 0.61213 z m -0.66103,-1.24339 c -0.077,-0.49355 -0.23193,-0.88526 -0.5751,-1.45381 l -0.31175,-0.51648 h -1.66093 -1.66093 l -0.32914,0.57526 c -0.34578,0.60435 -0.4868,0.95776 -0.57192,1.43329 l -0.0514,0.28693 h 2.60592 2.60592 z m -0.90531,-3.0989 c -0.0307,-0.45241 -0.0953,-1.09801 -0.14375,-1.43468 l -0.088,-0.61213 h -1.41554 -1.41555 l -0.0842,0.68865 c -0.0463,0.37875 -0.10725,1.02436 -0.13545,1.43467 l -0.0513,0.74603 h 1.69474 1.69475 z m -0.11701,-2.85023 v -0.4591 h -1.53032 -1.53033 v 0.4591 0.4591 h 1.53033 1.53032 z m -7.34555,3.69906 c -1.12315,-0.20346 -2.83936,-1.22381 -3.16089,-1.87927 -0.47246,-0.96313 1.19324,-0.80476 2.83323,0.26937 1.17402,0.76894 1.51271,1.50628 0.7412,1.61363 -0.12224,0.017 -0.30833,0.0153 -0.41354,-0.004 z m 0.51451,-0.38254 c 0.0492,-0.14983 -0.4487,-0.64753 -1.02415,-1.0237 -0.86738,-0.567 -1.98956,-0.95339 -2.35814,-0.81195 -0.1088,0.0418 -0.10976,0.0698 -0.009,0.26443 0.32701,0.63237 2.31179,1.71909 3.06223,1.67664 0.16507,-0.009 0.31319,-0.0568 0.32917,-0.10542 z"
         id="logo-0" />
    </g>
  </g>
</svg>
